<svg viewBox="0 0 153.5 66.5" width="307" height="133" xmlns="http://www.w3.org/2000/svg">
  <path d="m103.088 25.055 12.527 12.527 12.528-12.527-.362-12.44-12.166-.088zm-32.621 11.49h17.719V18.827H70.467l-8.373 8.86zm-35.03.05H17.72l-8.736-8.86 8.736-8.859h17.718Z" fill="#cebada"/>
  <path d="M140.67 12.527 128.143 0l-12.528 12.527 12.528 12.528 13.127-.362zM52.752 36.545h17.715V18.827l-8.72-10.432-8.995 10.432Zm-35.033.05H0V18.876L9.134 8.032l8.585 10.844Z" fill="#9a69ad"/>
  <path d="m128.143 25.055 12.527 12.53 12.528-12.53-12.528-12.528zm-75.39-6.228h17.714V1.108H52.752Zm-35.034.053H0V1.161h17.719zm0 0" fill="#07b8a0"/>
  <path d="M147.814 60.497v-4.773h-1.162a.334.334 0 0 1-.345-.342v-.887c0-.212.114-.33.326-.342l1.213-.083v-1.444c0-.196.098-.31.279-.326l1.311-.149c.2-.016.345.098.345.31v1.61h2.034c.18 0 .345.145.345.345v.966a.345.345 0 0 1-.345.342h-2.034v4.741c0 .703.263.998.985.998.279 0 .605-.016 1.017-.13.18-.05.342.032.393.228l.23.84c.064.211.033.373-.23.506-.377.18-1.064.31-1.606.31-1.97 0-2.756-.966-2.756-2.72m-5.542 2.296a.338.338 0 0 1-.346.345h-1.28a.348.348 0 0 1-.344-.345v-8.38c0-.178.149-.343.345-.343h.966c.184 0 .313.099.361.327l.114.738c.412-.491 1.181-1.198 2.249-1.198.294 0 .507.05.687.133a.342.342 0 0 1 .231.327c0 .05-.016.133-.035.212l-.196 1.016c-.032.184-.13.33-.326.298a3.24 3.24 0 0 0-.656-.066c-.785 0-1.393.342-1.77.82zm-10.744-3.018v-2.297c0-2.179 1.131-3.54 3.526-3.54 2.41 0 3.525 1.345 3.525 3.54v2.297c0 2.182-1.115 3.493-3.525 3.493-2.395 0-3.526-1.343-3.526-3.493m1.967-2.211v2.097c0 1.263.393 1.868 1.559 1.868 1.165 0 1.558-.605 1.558-1.868v-2.097c0-1.28-.393-1.872-1.558-1.872-1.166 0-1.559.592-1.559 1.872m-8.51 8.539a.346.346 0 0 1-.345.345h-1.277a.355.355 0 0 1-.345-.345v-11.69c0-.197.162-.343.345-.343h.966c.197 0 .279.099.345.295l.162.542c.46-.526 1.311-.97 2.23-.97 1.986 0 3 1.327 3 3.525v2.297c0 2.195-.999 3.51-2.95 3.51a3.057 3.057 0 0 1-2.131-.904zm0-5.41c.377.396.966.722 1.574.722 1.099 0 1.542-.608 1.542-1.868v-1.888c0-1.26-.443-1.869-1.542-1.869-.608 0-1.197.345-1.574.738zm-6.366 2.1a.336.336 0 0 1-.342.345h-1.28a.348.348 0 0 1-.345-.345v-8.38c0-.178.149-.343.345-.343h.966c.18 0 .314.099.364.327l.111.738c.412-.491 1.185-1.198 2.249-1.198.294 0 .51.05.69.133a.343.343 0 0 1 .228.327c0 .05-.019.133-.035.212l-.193 1.016c-.035.184-.133.33-.33.298a3.24 3.24 0 0 0-.655-.066c-.785 0-1.393.342-1.773.82zm-4.935-12.036c.903 0 1.245.46 1.245 1.166 0 .687-.342 1.13-1.245 1.13-.884 0-1.229-.443-1.229-1.13 0-.706.345-1.166 1.23-1.166m.984 12.036a.348.348 0 0 1-.345.345h-1.28a.336.336 0 0 1-.342-.345v-8.38c0-.178.146-.343.342-.343h1.28c.18 0 .345.165.345.342zm-9.302-2.198-.706 2.249a.408.408 0 0 1-.412.294h-1.343c-.196 0-.31-.133-.31-.313 0-.067.031-.165.047-.213l3.478-10.724a.306.306 0 0 1 .31-.228h1.444c.18 0 .28.114.31.228l3.478 10.724a.804.804 0 0 1 .048.213c0 .18-.114.313-.31.313h-1.347a.407.407 0 0 1-.408-.294l-.706-2.25zm3.097-1.821-1.276-4.213h-.07l-1.276 4.213zM93.881 53.89c1.957 0 2.713 1.398 2.713 3.19v5.687a.349.349 0 0 1-.347.346h-1.283a.336.336 0 0 1-.343-.346v-5.26c0-1.266-.51-1.708-1.432-1.708-.705 0-1.378.426-1.693.737v6.231a.336.336 0 0 1-.343.346H89.87a.349.349 0 0 1-.346-.346v-8.4a.35.35 0 0 1 .346-.346h.969c.18 0 .33.117.362.33l.114.641c.48-.48 1.366-1.102 2.566-1.102m-13.154 5.854v-2.303c0-2.185 1.133-3.55 3.531-3.55 2.42 0 3.538 1.346 3.538 3.55v2.303c0 2.185-1.118 3.5-3.538 3.5-2.398 0-3.531-1.347-3.531-3.5m1.972-2.22v2.105c0 1.264.394 1.874 1.56 1.874 1.168 0 1.565-.61 1.565-1.874v-2.105c0-1.283-.397-1.874-1.566-1.874-1.165 0-1.56.59-1.56 1.874m-7.713 2.944v-4.786h-1.166a.34.34 0 0 1-.346-.347v-.886c0-.212.114-.33.33-.346l1.217-.082v-1.445c0-.2.098-.315.279-.33l1.315-.147c.197-.019.346.099.346.311v1.61h2.039a.35.35 0 0 1 .346.347v.968a.349.349 0 0 1-.346.347H76.96v4.75c0 .709.26 1.004.985 1.004.279 0 .61-.016 1.019-.13.181-.05.346.032.394.229l.232.838c.066.213.031.378-.232.508-.375.185-1.067.315-1.61.315-1.973 0-2.763-.969-2.763-2.728m-7.286 2.776c-1.956 0-2.712-1.398-2.712-3.19v-5.687c0-.197.165-.346.346-.346h1.283a.34.34 0 0 1 .346.346v5.262c0 1.264.508 1.709 1.43 1.709.708 0 1.38-.429 1.692-.74v-6.231a.34.34 0 0 1 .346-.346h1.283a.35.35 0 0 1 .347.346v8.4a.35.35 0 0 1-.347.346h-.971c-.181 0-.328-.114-.363-.327l-.114-.645c-.476.48-1.365 1.102-2.566 1.102m-8.648-1.937h4.043c.197 0 .346.146.346.343v1.118a.33.33 0 0 1-.346.346h-5.77c-.214 0-.344-.149-.344-.346V51.951c0-.181.13-.346.343-.346h1.382c.197 0 .346.165.346.346zm-11.703-7.32c1.95 0 2.704 1.396 2.704 3.182v5.67a.347.347 0 0 1-.342.346h-1.279a.338.338 0 0 1-.345-.345v-5.247c0-1.26-.51-1.703-1.428-1.703-.703 0-1.374.424-1.687.738v6.212a.335.335 0 0 1-.342.345h-1.28a.348.348 0 0 1-.345-.345v-8.375c0-.18.15-.345.346-.345h.965c.18 0 .33.114.361.33l.114.636c.478-.475 1.362-1.099 2.558-1.099m-13.114 5.835v-2.295c0-2.178 1.13-3.537 3.524-3.537 2.41 0 3.524 1.343 3.524 3.537v2.295c0 2.182-1.114 3.493-3.524 3.493-2.393 0-3.524-1.343-3.524-3.493m1.966-2.21v2.096c0 1.264.393 1.868 1.558 1.868s1.558-.604 1.558-1.868v-2.096c0-1.279-.393-1.868-1.558-1.868s-1.558.59-1.558 1.868m-5.623-6.376c0-.18.146-.345.345-.345h1.276c.184 0 .346.164.346.345V62.84a.346.346 0 0 1-.346.345h-.965c-.197 0-.279-.098-.345-.295l-.165-.541c-.46.526-1.308.966-2.229.966-1.982 0-2.998-1.327-2.998-3.524v-2.296c0-2.194 1-3.505 2.95-3.505.887 0 1.672.425 2.131.9zm0 5.328c-.376-.395-.965-.721-1.573-.721-1.099 0-1.542.604-1.542 1.868v1.883c0 1.264.443 1.868 1.542 1.868.608 0 1.197-.341 1.573-.737zm-9.46-2.577c1.95 0 2.704 1.396 2.704 3.182v5.67a.348.348 0 0 1-.345.346h-1.28a.338.338 0 0 1-.345-.345v-5.247c0-1.26-.506-1.703-1.424-1.703-.703 0-1.374.424-1.688.738v6.212a.335.335 0 0 1-.342.345h-1.282a.347.347 0 0 1-.342-.345v-8.375c0-.18.146-.345.342-.345h.969c.18 0 .326.114.36.33l.115.636c.475-.475 1.361-1.099 2.558-1.099M8.003 59.822v-2.295c0-2.178 1.13-3.537 3.524-3.537 2.41 0 3.524 1.343 3.524 3.537v2.295c0 2.182-1.115 3.493-3.524 3.493-2.394 0-3.524-1.343-3.524-3.493m1.966-2.21v2.096c0 1.264.393 1.868 1.558 1.868 1.162 0 1.557-.604 1.557-1.868v-2.096c0-1.279-.395-1.868-1.557-1.868-1.165 0-1.558.59-1.558 1.868M2.282 61.38h4.03c.196 0 .342.149.342.345v1.115a.327.327 0 0 1-.342.345H.559c-.212 0-.342-.149-.342-.345V52.053c0-.178.13-.342.342-.342h1.377c.197 0 .346.164.346.342z" fill="#5c5f64"/>
</svg>
