<?xml version="1.0" encoding="UTF-8"?>
<svg version="1.1" xmlns="http://www.w3.org/2000/svg" width="206" height="236">
<path d="M0 0 C43.23 0 86.46 0 131 0 C128.10859179 2.89140821 126.43848483 4.53398052 123.1015625 6.4375 C122.37453125 6.85773437 121.6475 7.27796875 120.8984375 7.7109375 C120.14820312 8.13632813 119.39796875 8.56171875 118.625 9 C117.1370487 9.8524721 115.65005169 10.70661223 114.1640625 11.5625 C113.45540039 11.96984375 112.74673828 12.3771875 112.01660156 12.796875 C110.15495648 13.90755139 108.36984167 15.08207187 106.5859375 16.3125 C104 18 104 18 102 18 C102 87.96 102 157.92 102 230 C133.83721868 225.4518259 156.49269025 213.94743424 176.07421875 188.28125 C187.71607095 172.06208068 196.62048489 154.50829999 204 136 C204.66 136 205.32 136 206 136 C206 169 206 202 206 236 C138.02 236 70.04 236 0 236 C0 234.02 0 232.04 0 230 C9.57 230 19.14 230 29 230 C29 160.04 29 90.08 29 18 C27.35 17.34 25.7 16.68 24 16 C20.01361893 13.78388203 16.14161764 11.3779455 12.25 9 C11.18394531 8.35804687 10.11789062 7.71609375 9.01953125 7.0546875 C8.00761719 6.43851562 6.99570313 5.82234375 5.953125 5.1875 C5.02661133 4.62417969 4.10009766 4.06085937 3.14550781 3.48046875 C1 2 1 2 0 0 Z " fill="#2557A5" transform="translate(0,0)"/>
<path d="M0 0 C2.875 1.4375 2.875 1.4375 5 4 C5.41409388 7.04542461 5.29354833 9.94709737 5 13 C6.98 13 8.96 13 11 13 C11 12.34 11 11.68 11 11 C11.99 11 12.98 11 14 11 C14 14.3 14 17.6 14 21 C13.01 21 12.02 21 11 21 C11 20.01 11 19.02 11 18 C4.73 18 -1.54 18 -8 18 C-8 18.99 -8 19.98 -8 21 C-8.99 21 -9.98 21 -11 21 C-11.13517903 18.24835568 -11.23415251 15.50335479 -11.3125 12.75 C-11.35439453 11.97269531 -11.39628906 11.19539063 -11.43945312 10.39453125 C-11.5631089 4.60744076 -11.5631089 4.60744076 -8.66796875 1.484375 C-5.39490595 -0.33665555 -3.69268295 -0.61544716 0 0 Z " fill="#F1F4F9" transform="translate(63,87)"/>
<path d="M0 0 C3.79626072 3.09898835 3.79626072 3.09898835 5 6 C5.42277254 10.36361662 4.70953036 13.78788563 2.5 17.5625 C-1.30895515 19.75264921 -4.72261342 19.85243291 -9 19 C-12.0625 17.0625 -12.0625 17.0625 -14 14 C-14.94728069 9.32280161 -14.66588027 6.06540843 -12.125 2 C-8.30958073 -1.59098284 -4.89089642 -1.48406972 0 0 Z " fill="#F3F5FA" transform="translate(73,142)"/>
<path d="M0 0 C3.03978021 0.68164768 4.80055419 2.23591662 6.93359375 4.43359375 C8.70184426 7.97009478 7.9729419 11.71247073 6.93359375 15.43359375 C4.59359475 18.76770998 1.89730257 20.25658601 -2.12890625 20.99609375 C-5.74421733 20.30380014 -7.44749041 18.97768342 -10.06640625 16.43359375 C-11.81106073 12.94428479 -11.63091177 9.24072398 -11.06640625 5.43359375 C-8.06278312 0.83429584 -5.28483659 -0.3296779 0 0 Z " fill="#F2F5FA" transform="translate(70.06640625,66.56640625)"/>
<path d="M0 0 C0.99 0 1.98 0 3 0 C3 2.31 3 4.62 3 7 C-3.435 7.495 -3.435 7.495 -10 8 C-10 9.65 -10 11.3 -10 13 C-6.55549263 15.29633824 -4.06187717 15.54016485 0 16 C0 15.01 0 14.02 0 13 C0.99 13 1.98 13 3 13 C3 16.3 3 19.6 3 23 C2.01 23 1.02 23 0 23 C0 22.01 0 21.02 0 20 C-3.96 20 -7.92 20 -12 20 C-12 20.99 -12 21.98 -12 23 C-12.99 23 -13.98 23 -15 23 C-15 20.69 -15 18.38 -15 16 C-14.34 15.67 -13.68 15.34 -13 15 C-13.66 14.34 -14.32 13.68 -15 13 C-15.265625 11.125 -15.265625 11.125 -15.25 9 C-15.25515625 8.29875 -15.2603125 7.5975 -15.265625 6.875 C-15 5 -15 5 -13 3 C-9.9609375 2.8046875 -9.9609375 2.8046875 -6.375 2.875 C-4.59222656 2.90207031 -4.59222656 2.90207031 -2.7734375 2.9296875 C-1.85820313 2.95289062 -0.94296875 2.97609375 0 3 C0 2.01 0 1.02 0 0 Z " fill="#F9FAFC" transform="translate(74,117)"/>
<path d="M0 0 C0.99 0 1.98 0 3 0 C3 1.98 3 3.96 3 6 C2.01 6.495 2.01 6.495 1 7 C1.495 7.37125 1.99 7.7425 2.5 8.125 C4 10 4 10 4.375 13 C4 16 4 16 2.89453125 17.67578125 C0.06270451 19.65514056 -2.28350993 19.28860862 -5.6875 19.1875 C-6.86699219 19.16042969 -8.04648438 19.13335937 -9.26171875 19.10546875 C-10.16535156 19.07066406 -11.06898437 19.03585938 -12 19 C-12 19.99 -12 20.98 -12 22 C-12.99 22 -13.98 22 -15 22 C-15 19.69 -15 17.38 -15 15 C-8.565 14.505 -8.565 14.505 -2 14 C-1.67 12.68 -1.34 11.36 -1 10 C-3.39763185 7.60236815 -4.33273498 7.65719414 -7.625 7.375 C-8.44226563 7.30023438 -9.25953125 7.22546875 -10.1015625 7.1484375 C-10.72804688 7.09945312 -11.35453125 7.05046875 -12 7 C-12 7.66 -12 8.32 -12 9 C-12.99 9 -13.98 9 -15 9 C-15 6.69 -15 4.38 -15 2 C-10.05 2 -5.1 2 0 2 C0 1.34 0 0.68 0 0 Z " fill="#F6F8FB" transform="translate(74,176)"/>
<path d="M0 0 C0.99 0 1.98 0 3 0 C3 1.98 3 3.96 3 6 C-1.62 6.33 -6.24 6.66 -11 7 C-9.67082039 12.47825081 -9.67082039 12.47825081 -8 14 C-6.65252916 14.23075082 -5.29622435 14.41153063 -3.9375 14.5625 C-2.638125 14.706875 -1.33875 14.85125 0 15 C0 14.01 0 13.02 0 12 C0.99 12 1.98 12 3 12 C3 15.3 3 18.6 3 22 C2.01 22 1.02 22 0 22 C0 21.01 0 20.02 0 19 C-3.96 19 -7.92 19 -12 19 C-12 19.99 -12 20.98 -12 22 C-12.99 22 -13.98 22 -15 22 C-15.125 19.125 -15.125 19.125 -15 16 C-14.34 15.34 -13.68 14.68 -13 14 C-13.66 13.34 -14.32 12.68 -15 12 C-15.55953693 5.84509372 -15.55953693 5.84509372 -13.8671875 3.2890625 C-11.16205295 1.42150099 -9.05805457 1.70780469 -5.8125 1.8125 C-4.72582031 1.83957031 -3.63914062 1.86664063 -2.51953125 1.89453125 C-1.27236328 1.94673828 -1.27236328 1.94673828 0 2 C0 1.34 0 0.68 0 0 Z " fill="#F8F9FC" transform="translate(74,31)"/>
<path d="M0 0 C2.31 0 4.62 0 7 0 C7 6.27 7 12.54 7 19 C6.01 19 5.02 19 4 19 C4 18.01 4 17.02 4 16 C-2.27 16 -8.54 16 -15 16 C-15 17.32 -15 18.64 -15 20 C-15.99 20 -16.98 20 -18 20 C-18 16.04 -18 12.08 -18 8 C-17.01 8 -16.02 8 -15 8 C-15 9.32 -15 10.64 -15 12 C-8.73 12 -2.46 12 4 12 C4 9.36 4 6.72 4 4 C2.68 4 1.36 4 0 4 C0 2.68 0 1.36 0 0 Z " fill="#FBFCFD" transform="translate(70,198)"/>
<path d="M0 0 C0.99 0 1.98 0 3 0 C3 1.32 3 2.64 3 4 C4.62600941 3.9129995 6.25089678 3.8048219 7.875 3.6875 C9.23238281 3.60048828 9.23238281 3.60048828 10.6171875 3.51171875 C13.36221601 3.2117961 13.36221601 3.2117961 15 0 C16.32 0 17.64 0 19 0 C18.51128818 5.49800797 18.51128818 5.49800797 16.28125 7.6875 C13.53787707 9.26587895 11.88845039 9.3113862 8.75 9.1875 C7.85796875 9.16042969 6.9659375 9.13335937 6.046875 9.10546875 C5.37140625 9.07066406 4.6959375 9.03585938 4 9 C4 9.99 4 10.98 4 12 C2.68 12 1.36 12 0 12 C0 11.01 0 10.02 0 9 C-1.65 9 -3.3 9 -5 9 C-5 7.35 -5 5.7 -5 4 C-3.35 4 -1.7 4 0 4 C0 2.68 0 1.36 0 0 Z " fill="#E8EDF5" transform="translate(59,19)"/>
<path d="M0 0 C0.99 0 1.98 0 3 0 C3.36363636 5.45454545 3.36363636 5.45454545 1.875 7.6875 C-0.83353399 9.58347379 -2.92358655 9.29278753 -6.1875 9.1875 C-7.27417969 9.16042969 -8.36085938 9.13335937 -9.48046875 9.10546875 C-10.72763672 9.05326172 -10.72763672 9.05326172 -12 9 C-12 9.99 -12 10.98 -12 12 C-12.99 12 -13.98 12 -15 12 C-15 11.01 -15 10.02 -15 9 C-16.65 9 -18.3 9 -20 9 C-20 7.68 -20 6.36 -20 5 C-18.35 5 -16.7 5 -15 5 C-15 3.68 -15 2.36 -15 1 C-14.01 1 -13.02 1 -12 1 C-12 2.32 -12 3.64 -12 5 C-10.3739713 4.93999894 -8.74898451 4.8512115 -7.125 4.75 C-6.22007813 4.70359375 -5.31515625 4.6571875 -4.3828125 4.609375 C-1.82889456 4.24388852 -1.82889456 4.24388852 -0.6796875 1.953125 C-0.34324219 0.98632812 -0.34324219 0.98632812 0 0 Z " fill="#FCFDFE" transform="translate(74,163)"/>
<path d="M0 0 C0.99 0 1.98 0 3 0 C3 2.97 3 5.94 3 9 C2.01 9 1.02 9 0 9 C0 8.34 0 7.68 0 7 C-3.63 7 -7.26 7 -11 7 C-11 7.66 -11 8.32 -11 9 C-12.32 9 -13.64 9 -15 9 C-15 6.69 -15 4.38 -15 2 C-10.05 2 -5.1 2 0 2 C0 1.34 0 0.68 0 0 Z " fill="#F0F3F8" transform="translate(74,56)"/>
<path d="M0 0 C3.0625 0.3125 3.0625 0.3125 4.9375 1.5 C6.46909584 3.96757108 6.49072025 5.45769831 6.0625 8.3125 C4.9375 10.125 4.9375 10.125 3.0625 11.3125 C0.0625 11.75 0.0625 11.75 -2.9375 11.3125 C-4.875 9.625 -4.875 9.625 -5.9375 7.3125 C-5.61764525 2.8345335 -4.76027546 0.50641228 0 0 Z " fill="#3261AB" transform="translate(67.9375,145.6875)"/>
<path d="M0 0 C1.8125 1.1875 1.8125 1.1875 3 3 C3.42822025 5.85480169 3.40659584 7.34492892 1.875 9.8125 C-0.87155972 11.55198782 -2.81846974 11.39769128 -6 11 C-7.9375 9.875 -7.9375 9.875 -9 8 C-8.875 4.9375 -8.875 4.9375 -8 2 C-4.76746204 -0.15502531 -3.74849077 -0.46856135 0 0 Z " fill="#3060AA" transform="translate(71,71)"/>
<path d="M0 0 C3 0.125 3 0.125 4 1.125 C4.04092937 3.45797433 4.04241723 5.79205225 4 8.125 C1.36 8.125 -1.28 8.125 -4 8.125 C-4.04241723 5.79205225 -4.04092937 3.45797433 -4 1.125 C-3 0.125 -3 0.125 0 0 Z " fill="#2659A6" transform="translate(60,91.875)"/>
<path d="M0 0 C1.32 0 2.64 0 4 0 C4 1.65 4 3.3 4 5 C2.68 5 1.36 5 0 5 C0 3.35 0 1.7 0 0 Z " fill="#E1E8F2" transform="translate(52,58)"/>
</svg>
