<?xml version="1.0" encoding="UTF-8"?>
<svg version="1.1" xmlns="http://www.w3.org/2000/svg" width="3668" height="1857">
<path d="M0 0 C1.59790102 0.15213067 3.19559455 0.30644168 4.79319763 0.46166992 C6.1278036 0.59021614 6.1278036 0.59021614 7.4893713 0.72135925 C49.48813173 5.38256861 93.32727122 27.90642138 126 54 C126.57637207 54.45922852 127.15274414 54.91845703 127.74658203 55.39160156 C142.46427173 67.25564529 156.67196145 80.837519 168 96 C168.60835693 96.79374023 168.60835693 96.79374023 169.22900391 97.60351562 C200.16616313 137.96925127 218.67126722 184.4871149 229 234 C229.19589958 234.90006732 229.39179915 235.80013463 229.59363508 236.72747672 C234.72839285 261.16832592 233.54421149 286.311057 233.46426249 311.13967407 C233.44862387 317.24152414 233.45211748 323.34333951 233.45498985 329.44520394 C233.4602106 341.90472104 233.44701376 354.36415244 233.42292023 366.82364464 C233.39916372 379.14072789 233.38383871 391.45777536 233.37950897 403.77488136 C233.37923401 404.5438342 233.37895906 405.31278704 233.37867576 406.10504148 C233.37732223 410.01096454 233.37611677 413.91688763 233.37496826 417.82281075 C233.36659083 445.4104625 233.33970944 472.99806776 233.30175781 500.58569336 C233.26495607 527.36856847 233.23665309 554.1514308 233.21972656 580.93432617 C233.21893741 582.17504199 233.21893741 582.17504199 233.21813231 583.44082278 C233.21285773 591.74816331 233.20775455 600.05550394 233.20277687 608.36284465 C233.19263497 625.28232782 233.18134997 642.20181015 233.16937256 659.12129211 C233.16854882 660.28790963 233.16854882 660.28790963 233.16770844 661.47809518 C233.13097323 713.3187497 233.06751668 765.15937753 233 817 C230.46729262 816.85646791 227.93492457 816.70890594 225.40258789 816.55908203 C224.3388583 816.49942009 224.3388583 816.49942009 223.25363922 816.43855286 C216.88223489 816.05623428 210.69706833 815.12701288 204.4375 813.875 C203.33253174 813.65618164 202.22756348 813.43736328 201.08911133 813.21191406 C156.19554292 803.96185682 114.96426133 781.74929284 82 750 C81.34064453 749.36787598 80.68128906 748.73575195 80.00195312 748.08447266 C70.51544482 738.94170975 61.7647737 729.64761354 54 719 C53.57138672 718.4215332 53.14277344 717.84306641 52.70117188 717.24707031 C21.39401747 674.95208451 -0.27813745 620.936997 -0.12304783 567.7426815 C-0.12420167 566.75526307 -0.12535552 565.76784464 -0.12654433 564.75050443 C-0.12918486 561.45176561 -0.12471002 558.15307589 -0.12025452 554.8543396 C-0.12069074 552.46157432 -0.1215666 550.06880909 -0.12284368 547.67604411 C-0.12461218 542.4790111 -0.12328405 537.28198844 -0.11920547 532.08495712 C-0.11315773 524.35722334 -0.11287085 516.62949676 -0.11374746 508.90176105 C-0.1150599 495.90099051 -0.11172551 482.90022507 -0.10573006 469.89945602 C-0.09981023 457.0296463 -0.09596354 444.1598387 -0.09487724 431.29002762 C-0.0948085 430.48940658 -0.09473976 429.68878553 -0.09466894 428.86390325 C-0.0943306 424.79784688 -0.09402922 420.7317905 -0.09374207 416.66573413 C-0.09164243 387.87627574 -0.08490724 359.08682011 -0.07543945 330.29736328 C-0.06625305 302.3312176 -0.0591704 274.36507267 -0.05493164 246.39892578 C-0.05480011 245.53667673 -0.05466859 244.67442767 -0.05453308 243.78604986 C-0.05321454 235.1268809 -0.05193873 226.46771194 -0.05069422 217.80854298 C-0.0481581 200.16928781 -0.04533685 182.53003269 -0.04234314 164.89077759 C-0.04220585 164.07977789 -0.04206856 163.26877819 -0.04192711 162.43320275 C-0.0327286 108.28880067 -0.01686284 54.14440017 0 0 Z " fill="#C8102E" transform="translate(1039,520)"/>
<path d="M0 0 C0.07184269 45.15716804 0.07490817 90.31416174 0.00396824 135.4713335 C0.00132422 137.15617523 -0.00128063 138.84101703 -0.00384617 140.52585888 C-0.0353045 161.13857525 -0.08489273 181.75107702 -0.18551159 202.36358356 C-0.22346139 210.17135937 -0.25571679 217.97903861 -0.27072144 225.78689575 C-0.28364295 232.45501449 -0.31052515 239.12290622 -0.35451275 245.79089516 C-0.37655211 249.18389814 -0.39080163 252.57640216 -0.39190102 255.96951103 C-0.41746176 295.49012937 -8.54111132 334.39114164 -26 370 C-26.43828125 370.8957373 -26.8765625 371.79147461 -27.328125 372.71435547 C-37.9495482 394.19428721 -50.64857948 414.06883849 -66.91796875 431.734375 C-68.8244044 433.80892036 -70.6676561 435.92265931 -72.5 438.0625 C-78.84523612 445.31004033 -85.67171885 451.74128362 -93.1953125 457.75390625 C-95.02210262 459.21686491 -96.83066949 460.70296955 -98.6171875 462.21484375 C-134.77727126 492.74168004 -186.18973002 515.20598599 -234 515 C-234.06866015 483.68740666 -234.12164313 452.37483351 -234.15319599 421.06218261 C-234.15694743 417.35281562 -234.16083047 413.64344879 -234.16479492 409.93408203 C-234.16558185 409.1957144 -234.16636878 408.45734678 -234.16717956 407.69660437 C-234.18018011 395.79175303 -234.20380392 383.88694581 -234.23145839 371.98212051 C-234.25966248 359.737193 -234.2762077 347.49228836 -234.28226548 335.24732971 C-234.28635109 327.71124219 -234.29918239 320.17527947 -234.3237494 312.63923043 C-234.34170816 306.82898318 -234.34332832 301.0188132 -234.33932304 295.20854378 C-234.34013867 292.84815778 -234.34597374 290.48776641 -234.35761642 288.12740898 C-234.4493214 268.55161691 -232.96933432 249.22272689 -228.75 230.0625 C-228.54165527 229.09344727 -228.33331055 228.12439453 -228.11865234 227.12597656 C-216.23919552 173.42290635 -193.42101396 122.0925894 -155.49609375 81.68359375 C-153.36940178 79.39715027 -151.32927439 77.07012916 -149.3125 74.6875 C-146.54842951 71.51465852 -143.61126069 68.74162541 -140.3984375 66.02734375 C-138.56681173 64.47911284 -136.76707051 62.91099072 -134.9765625 61.31640625 C-101.11100089 31.36527888 -46.38942586 0 0 0 Z " fill="#C8102E" transform="translate(1010,822)"/>
<path d="M0 0 C2.05115973 0.30450891 4.10185052 0.61217748 6.15234375 0.92114258 C7.29437256 1.09212967 8.43640137 1.26311676 9.61303711 1.43928528 C14.48785169 2.24631517 19.22980471 3.41084354 24 4.6875 C24.98564941 4.95022705 25.97129883 5.2129541 26.98681641 5.48364258 C68.2760736 16.69601085 106.53746301 35.70336229 138 65 C139.32937633 66.15042183 140.66257608 67.29644388 142 68.4375 C150.54399773 75.91564691 157.96945986 84.10325639 165 93 C165.87257203 94.07123058 166.74631172 95.14151088 167.62109375 96.2109375 C206.184888 143.75571905 233.30786192 212.18535693 233.12025452 273.64918518 C233.12153615 275.20430271 233.12153615 275.20430271 233.12284368 276.79083675 C233.12448348 280.24542273 233.11900176 283.69995955 233.11352539 287.15454102 C233.11324317 289.63859557 233.11340194 292.12265021 233.1139679 294.60670471 C233.1141952 299.94479053 233.11136903 305.2828612 233.10573006 310.62094307 C233.09758252 318.33879043 233.09499651 326.05663188 233.09374207 333.77448308 C233.09155665 346.29798231 233.08491043 358.82147501 233.07543945 371.3449707 C233.06625212 383.50610318 233.05917775 395.66723389 233.05493164 407.82836914 C233.05466892 408.57872751 233.05440619 409.32908589 233.05413551 410.1021824 C233.05283042 413.86673263 233.05156672 417.63128288 233.05032361 421.39583313 C233.0399669 452.59722684 233.02228784 483.79861243 233 515 C230.46510916 514.85555071 227.93053493 514.70728912 225.39599609 514.55688477 C224.33094093 514.49678097 224.33094093 514.49678097 223.24436951 514.43546295 C216.94247036 514.05648043 210.81873552 513.16691231 204.625 511.9375 C203.52849121 511.72125977 202.43198242 511.50501953 201.30224609 511.28222656 C181.64022972 507.22040526 162.96708638 500.93200555 145 492 C144.13004395 491.57315918 143.26008789 491.14631836 142.36376953 490.70654297 C130.21448429 484.70540605 118.89346541 478.05748978 108 470 C107.42314453 469.5786377 106.84628906 469.15727539 106.25195312 468.72314453 C99.02911971 463.42598635 92.3131798 457.72700525 85.78515625 451.59765625 C83.29707763 449.27707802 80.76074019 447.03741665 78.1875 444.8125 C74.85160391 441.85189222 71.86511734 438.77240306 68.9921875 435.36328125 C67.4580522 433.54337564 65.90291116 431.75745061 64.3203125 429.98046875 C25.63361106 386.25380141 -0.28247208 325.1432849 -0.12025452 266.36375427 C-0.12110894 265.22083689 -0.12196337 264.07791951 -0.12284368 262.90036827 C-0.12448538 259.08647611 -0.1189986 255.27262832 -0.11352539 251.45874023 C-0.11268559 248.71853101 -0.11335787 245.97832264 -0.1139679 243.2381134 C-0.11449101 237.34672528 -0.11136646 231.45534827 -0.10573006 225.56396294 C-0.0975862 217.0461193 -0.09499688 208.52828102 -0.09374207 200.01043392 C-0.09155608 186.18916319 -0.08490828 172.36789838 -0.07543945 158.54663086 C-0.06625361 145.12443064 -0.05917851 131.70223203 -0.05493164 118.2800293 C-0.05466892 117.45200904 -0.05440619 116.62398878 -0.05413551 115.770877 C-0.05283043 111.61674091 -0.05156673 107.46260481 -0.05032361 103.3084687 C-0.0399651 68.87230821 -0.02235912 34.43615474 0 0 Z " fill="#C8102E" transform="translate(514,822)"/>
<path d="M0 0 C0.06886203 34.7522336 0.12162776 69.50445146 0.15319599 104.25673869 C0.15694753 108.37168007 0.16083055 112.48662132 0.16479492 116.6015625 C0.16558185 117.42067673 0.16636878 118.23979095 0.16717956 119.08372682 C0.1801873 132.29804742 0.20381522 145.51232834 0.23145839 158.7266255 C0.25964221 172.31400802 0.27620349 185.90136995 0.28226548 199.4887805 C0.28635521 207.85401808 0.29920973 216.21914348 0.3237494 224.58434647 C0.33976737 230.34251952 0.34436463 236.10063568 0.34050413 241.85882932 C0.33860713 245.16715735 0.34295083 248.47513672 0.35761642 251.7834549 C0.44397776 272.29247046 -0.73013046 292.61989791 -5.5625 312.625 C-5.94148438 314.20994263 -5.94148438 314.20994263 -6.328125 315.8269043 C-18.02781251 362.91745993 -40.48119397 404.80680402 -74 440 C-74.85537354 440.898396 -74.85537354 440.898396 -75.72802734 441.81494141 C-83.73372155 450.16093685 -91.95492725 457.80638198 -101.24951172 464.69384766 C-103.00889686 466.00663852 -104.74148179 467.34951419 -106.47265625 468.69921875 C-139.56044807 494.15626364 -186.78632382 515.13505654 -229.14671326 515.01126099 C-230.41829788 515.00754486 -231.68988251 515.00382874 -233 515 C-233.09158925 483.10151012 -233.16221238 451.20305823 -233.20426132 419.30446724 C-233.20926312 415.52386011 -233.21444051 411.74325323 -233.21972656 407.96264648 C-233.2207758 407.21011271 -233.22182505 406.45757894 -233.22290608 405.68224112 C-233.24023007 393.55630379 -233.27172266 381.43044366 -233.30861118 369.30455186 C-233.34624516 356.82795939 -233.36828282 344.35140686 -233.37635398 331.87475997 C-233.38179568 324.19891231 -233.39887129 316.52328295 -233.43166587 308.84750263 C-233.45565429 302.92494055 -233.45776417 297.00248564 -233.45243073 291.07987404 C-233.45351622 288.67720334 -233.46126829 286.27452307 -233.4768219 283.87190247 C-233.86595464 220.56624009 -211.41257625 153.42983345 -173 103 C-172.58073242 102.43941895 -172.16146484 101.87883789 -171.72949219 101.30126953 C-164.45353784 91.58997509 -156.42159871 82.72581058 -148 74 C-147.10023437 73.05898438 -146.20046875 72.11796875 -145.2734375 71.1484375 C-139.54416819 65.27366294 -133.46901931 60.04239148 -127 55 C-126.43071777 54.54898926 -125.86143555 54.09797852 -125.27490234 53.63330078 C-114.42465893 45.06395903 -102.98953216 37.86390521 -91 31 C-90.36835937 30.6292334 -89.73671875 30.2584668 -89.0859375 29.87646484 C-64.48311196 15.45816098 -29.00851771 0 0 0 Z " fill="#C8102E" transform="translate(1535,822)"/>
<path d="M0 0 C101.6875 0 101.6875 0 120.0390625 16.875 C129.8896052 27.2896707 133.40966499 39.87238917 133.36889648 53.84130859 C132.95165792 68.29093887 126.43143961 79.34222103 116.17578125 89.1796875 C110.67357602 93.78296872 104.83295021 96.88079515 98 99 C98.95519531 99.27972656 99.91039062 99.55945312 100.89453125 99.84765625 C115.92967285 104.43256442 127.98947566 111.44883935 135.875 125.5 C143.15404254 139.9588254 143.78399486 156.6715006 139.03125 172.15625 C133.53576404 186.5633348 124.28721768 196.45424414 110.25 202.8125 C75.23034382 215.06937966 35.51300092 208 0 208 C0 139.36 0 70.72 0 0 Z M20 18 C20 42.09 20 66.18 20 91 C32.684375 91.0928125 32.684375 91.0928125 45.625 91.1875 C49.5842749 91.22846802 49.5842749 91.22846802 53.62353516 91.27026367 C71.11859837 91.37716578 89.32838684 91.33872943 103 78.625 C110.09411551 70.77141713 112.48997857 61.18349924 112.24609375 50.796875 C111.52290119 42.5777342 108.56701861 35.14495063 103 29 C90.73894432 19.02678623 74.9793731 17.83076853 59.84375 17.90234375 C58.82958008 17.90335083 57.81541016 17.90435791 56.77050781 17.90539551 C53.01366023 17.91059306 49.25682887 17.92455411 45.5 17.9375 C37.085 17.958125 28.67 17.97875 20 18 Z M20 109 C20 135.73 20 162.46 20 190 C33.1175 190.061875 33.1175 190.061875 46.5 190.125 C49.22572266 190.14320801 51.95144531 190.16141602 54.75976562 190.18017578 C84.75570708 190.85876169 84.75570708 190.85876169 111 178 C118.03718221 169.83871648 120.56757092 160.73960639 120.4375 150.125 C120.42505249 148.81063965 120.42505249 148.81063965 120.41235352 147.46972656 C120.15326281 137.52285618 117.85886901 129.97092999 110.8359375 122.7109375 C93.12959641 106.21013453 64.68218488 108.84780384 42.1875 108.9375 C31.2046875 108.9684375 31.2046875 108.9684375 20 109 Z " fill="#000000" transform="translate(1681,1107)"/>
<path d="M0 0 C6.6 0 13.2 0 20 0 C20.00364563 1.75598511 20.00729126 3.51197021 20.01104736 5.32116699 C20.04808063 21.91610854 20.10571062 38.51086007 20.18390274 55.10565948 C20.22357599 63.63603497 20.2560276 72.16631977 20.27099609 80.69677734 C20.28407375 88.13891324 20.31119257 95.5808486 20.35461307 103.02287149 C20.37709166 106.95707375 20.39291896 110.89102996 20.39188385 114.82530212 C20.36302189 149.51339661 20.36302189 149.51339661 37.6484375 178.8125 C43.94557288 184.67030035 50.87340046 188.29546767 59 191 C60.00740234 191.3403125 60.00740234 191.3403125 61.03515625 191.6875 C75.23609997 195.62764624 91.77346951 193.38910382 104.8125 186.8125 C118.64016998 178.25499858 126.82210586 165.4844735 130.53157616 149.74441051 C132.06656085 142.06678278 132.30564957 134.62159122 132.31884766 126.80786133 C132.32816787 125.41708813 132.33833957 124.02632041 132.34928894 122.63555908 C132.37636747 118.89460579 132.39167184 115.15368966 132.40471697 111.41266465 C132.42044549 107.49021071 132.44720421 103.56783161 132.4727478 99.64543152 C132.5193647 92.23326428 132.55619099 84.82108268 132.58942068 77.40884465 C132.6277635 68.96372187 132.67714143 60.5186746 132.72740483 52.07361567 C132.83047023 34.71579765 132.91942107 17.35793647 133 0 C139.6 0 146.2 0 153 0 C153.04646451 17.84700906 153.08207408 35.6939971 153.10362434 53.54105377 C153.11390019 61.82931081 153.12788918 70.11752938 153.15087891 78.40576172 C153.17092662 85.63684254 153.1837432 92.86789547 153.18817699 100.09900331 C153.19076527 103.92139931 153.1967701 107.74371559 153.21146011 111.56608582 C153.41901457 167.83654226 153.41901457 167.83654226 134 190 C133.42894531 190.67675781 132.85789062 191.35351562 132.26953125 192.05078125 C121.4822693 203.89606889 104.70928387 210.39170724 89 212 C64.67720542 213.12707192 42.46926547 210.87479215 23.1484375 194.59765625 C7.63729667 180.04794977 0.88480229 160.44506912 -0.18054581 139.44029617 C-0.24333897 135.71993634 -0.24784216 132.0045191 -0.22705078 128.28369141 C-0.22648481 126.87277739 -0.22680685 125.46186278 -0.22793579 124.0509491 C-0.22850304 120.26878756 -0.21685203 116.48675627 -0.20278788 112.70462465 C-0.19017432 108.73419153 -0.18910173 104.76375451 -0.18673706 100.79330444 C-0.1805532 93.29618202 -0.16418486 85.79911883 -0.14403808 78.30202234 C-0.12158201 69.75773318 -0.11066139 61.213441 -0.10064721 52.66912961 C-0.07981542 35.112718 -0.0442914 17.55636756 0 0 Z " fill="#000000" transform="translate(1680,821)"/>
<path d="M0 0 C6.27 0 12.54 0 19 0 C19.33 66.33 19.66 132.66 20 201 C13.73 201 7.46 201 1 201 C0.5625 192.625 0.5625 192.625 0.43188477 189.99072266 C0.29004058 185.86266224 0.29004058 185.86266224 -1 182 C-1.72703125 182.78503906 -2.4540625 183.57007813 -3.203125 184.37890625 C-15.26223882 197.10684487 -28.55531871 204.83044235 -46.40258789 205.47070312 C-62.27842157 205.64977071 -75.61423137 201.82140018 -87.625 190.9375 C-104.39709396 172.79789719 -109.79965925 147.96710893 -109.21875 123.859375 C-107.94591793 101.40298069 -102.30494625 78.65322597 -85 63 C-70.87619459 51.75132288 -55.41913642 50.53773965 -38 52 C-23.12458995 53.99892425 -10.2218862 62.47264226 -1 74 C-0.67 49.58 -0.34 25.16 0 0 Z M-73.328125 77.97265625 C-87.52853976 92.90477177 -89.42938407 112.46042452 -89.21484375 132.046875 C-88.76498937 149.5604603 -84.40864448 166.60708654 -72.34765625 179.80859375 C-64.55363027 187.1624865 -55.96161793 188.55481024 -45.61401367 188.40234375 C-33.50998502 187.95643919 -23.21131906 183.75455916 -14.75 174.875 C-4.64492017 162.63073996 -0.54873668 146.65092434 0 131 C0.03996094 130.13375 0.07992187 129.2675 0.12109375 128.375 C0.51863609 112.28622753 -2.97480804 97.37706534 -12 84 C-12.598125 83.0925 -13.19625 82.185 -13.8125 81.25 C-22.42485726 72.39157539 -33.73304039 68.53107185 -45.875 67.97265625 C-55.97269894 68.06101112 -65.55838086 71.3892321 -73.328125 77.97265625 Z " fill="#000000" transform="translate(2102,1114)"/>
<path d="M0 0 C5.94 0 11.88 0 18 0 C18.0154612 3.15777008 18.0154612 3.15777008 18.03123474 6.3793335 C18.12930899 26.3257329 18.23218416 46.27210356 18.33933926 66.21845627 C18.39430161 76.47033424 18.44771691 86.72221565 18.49731445 96.97412109 C18.54061564 105.92370635 18.58699843 114.87326981 18.63687855 123.8228209 C18.66311623 128.548761 18.68794924 133.27469781 18.70907402 138.00066376 C18.80406875 159.02130496 19.07187513 179.99724433 20 201 C13.73 201 7.46 201 1 201 C0.505 192.09 0.505 192.09 0 183 C-0.66 183 -1.32 183 -2 183 C-2.61875 183.804375 -3.2375 184.60875 -3.875 185.4375 C-12.49105742 196.1001869 -25.69192665 202.56068386 -39 205 C-56.70315532 206.71400105 -71.94561589 203.82823066 -85.98828125 192.37890625 C-103.13014378 176.52933491 -107.79527916 152.22533674 -109.1875 130.0078125 C-109.71923285 108.14029892 -104.51152958 85.092852 -90.09375 68.1796875 C-80.82778912 58.53340733 -69.15989406 52.22798268 -55.6796875 51.6640625 C-36.04735149 51.35633509 -20.65852448 54.77436182 -5.62109375 68.32421875 C-4 70 -4 70 -1 74 C-0.67 49.58 -0.34 25.16 0 0 Z M-73.2578125 77.97265625 C-87.21400205 92.59216279 -89.45353155 112.13573567 -89.2109375 131.43359375 C-88.74245487 148.20353666 -85.23550642 166.66102207 -73 179 C-65.58954099 185.75440228 -58.10801576 188.56105878 -48.125 188.375 C-47.33416016 188.36484863 -46.54332031 188.35469727 -45.72851562 188.34423828 C-33.57423528 188.02215485 -23.23725368 183.78177573 -14.75 174.875 C-5.26570686 163.38294319 -0.58464735 147.81106623 0 133 C0.07734375 131.3603125 0.07734375 131.3603125 0.15625 129.6875 C0.61955353 111.15535894 -3.30443297 93.16485508 -16 79 C-31.88393762 64.98133211 -57.18126289 63.92653592 -73.2578125 77.97265625 Z " fill="#000000" transform="translate(2566,1114)"/>
<path d="M0 0 C1.1034375 -0.01611328 2.206875 -0.03222656 3.34375 -0.04882812 C19.37057604 -0.05823354 33.35608312 4.77210952 45.00390625 15.97265625 C61.98668903 33.66428562 66.25 57.55385714 66.25 81.3125 C29.29 81.3125 -7.67 81.3125 -45.75 81.3125 C-41.98173374 106.32058162 -41.98173374 106.32058162 -27.5859375 126.18359375 C-15.31257124 134.87903521 -2.37060974 136.43258951 12.25 135.3125 C22.92254996 133.26435746 32.14313314 126.2065125 38.25 117.3125 C40.99529126 112.45485963 43.17806184 107.49234541 45.25 102.3125 C51.52 102.3125 57.79 102.3125 64.25 102.3125 C60.61212518 118.68293669 53.00523815 133.36861767 39.3359375 143.46484375 C23.13386182 153.57510997 1.55320431 156.29180854 -17.12109375 152.59375 C-28.90478476 149.39292265 -37.08870566 143.79551727 -45.75 135.3125 C-46.30558594 134.79300781 -46.86117188 134.27351563 -47.43359375 133.73828125 C-61.41692826 119.30020416 -65.84952754 95.74721265 -65.78515625 76.3828125 C-65.26234528 52.86768452 -58.8032798 30.71128938 -41.4140625 14.078125 C-29.20493888 3.56800564 -15.72905396 -0.04530257 0 0 Z M-29.875 28.25 C-39.27360859 38.58846945 -43.38216442 50.63414418 -44.75 64.3125 C-14.72 64.3125 15.31 64.3125 46.25 64.3125 C42.98630314 46.90611673 39.96741911 33.78821753 25.25 23.3125 C8.2939628 12.03404992 -15.25751854 14.57558186 -29.875 28.25 Z " fill="#000000" transform="translate(1911.75,1165.6875)"/>
<path d="M0 0 C14.18828014 10.42682675 21.77285285 24.14205613 25.84375 41.08984375 C26.18019531 42.48009766 26.18019531 42.48009766 26.5234375 43.8984375 C28.46516476 53.48737826 27.84375 61.94491518 27.84375 72.08984375 C-8.78625 72.08984375 -45.41625 72.08984375 -83.15625 72.08984375 C-78.87224235 98.41963429 -78.87224235 98.41963429 -62.34765625 118.39453125 C-50.76006955 126.0292375 -38.72157133 127.31010835 -25.15625 126.08984375 C-13.77486913 123.68450037 -5.43723769 117.03048102 1.21875 107.65234375 C4.08855169 103.03783308 5.978753 98.18272017 7.84375 93.08984375 C14.11375 93.08984375 20.38375 93.08984375 26.84375 93.08984375 C25.4096969 99.54308269 24.09961684 104.40602825 21.15625 110.08984375 C20.80175781 110.78263428 20.44726562 111.4754248 20.08203125 112.18920898 C12.40086985 126.82627926 1.89820729 135.76843453 -13.67578125 141.3515625 C-32.35605799 146.83444496 -52.97008251 146.05013618 -70.2734375 136.87890625 C-86.77417174 126.63861319 -96.01039439 110.24287078 -100.59375 91.83984375 C-106.18731068 66.44626899 -102.53838425 38.97729904 -88.9609375 16.8046875 C-80.29860728 3.77369291 -67.08534778 -5.28955362 -51.72607422 -8.51318359 C-34.10525117 -11.23515379 -15.24556373 -9.69240813 0 0 Z M-67.27734375 19.015625 C-75.98494059 28.62837744 -82.15625 41.99660606 -82.15625 55.08984375 C-52.12625 55.08984375 -22.09625 55.08984375 8.84375 55.08984375 C6.33682002 38.79479888 2.84041947 25.89445685 -10.3671875 15.36328125 C-27.65024627 3.06136605 -51.83480788 4.63378856 -67.27734375 19.015625 Z " fill="#000000" transform="translate(3125.15625,1174.91015625)"/>
<path d="M0 0 C15.94705097 13.20347231 22.39153798 33.05533671 24.41796875 53.10546875 C24.41796875 58.38546875 24.41796875 63.66546875 24.41796875 69.10546875 C-12.21203125 69.10546875 -48.84203125 69.10546875 -86.58203125 69.10546875 C-82.6725474 95.00236076 -82.6725474 95.00236076 -67.26953125 114.98046875 C-55.67227313 123.38600284 -42.43457896 124.22452774 -28.58203125 123.10546875 C-24.83950836 122.29389315 -21.86721903 121.04890401 -18.58203125 119.10546875 C-17.79570312 118.65816406 -17.009375 118.21085938 -16.19921875 117.75 C-5.40721796 111.10739885 -0.51909828 101.91666984 3.41796875 90.10546875 C9.68796875 90.10546875 15.95796875 90.10546875 22.41796875 90.10546875 C20.30280327 104.91162708 12.62989378 119.89957897 0.69140625 129.23828125 C-5.73641 133.73941356 -12.02045729 137.00503154 -19.58203125 139.10546875 C-20.74992187 139.44191406 -20.74992187 139.44191406 -21.94140625 139.78515625 C-41.60779289 144.35727799 -61.35193762 141.21603714 -78.58203125 131.10546875 C-93.71049871 120.78834996 -101.33196753 102.38771715 -104.87109375 85.05078125 C-105.80366428 80.0794447 -106.40171154 75.16226064 -106.58203125 70.10546875 C-106.64197266 68.84283203 -106.64197266 68.84283203 -106.703125 67.5546875 C-107.28544811 44.43303444 -100.72824222 21.11665531 -84.58203125 4.10546875 C-62.25996711 -17.36091626 -24.57011845 -18.02799916 0 0 Z M-72.83984375 17.91796875 C-81.16881129 28.37586522 -84.2602295 38.88745127 -85.58203125 52.10546875 C-55.88203125 52.10546875 -26.18203125 52.10546875 4.41796875 52.10546875 C4.41796875 38.96318388 0.10661322 26.70447693 -8.6484375 16.7578125 C-17.79848645 8.00061002 -28.74703635 4.72546839 -41.14453125 3.85546875 C-53.33496943 4.74204607 -64.42847264 8.70385268 -72.83984375 17.91796875 Z " fill="#000000" transform="translate(2304.58203125,891.89453125)"/>
<path d="M0 0 C1.03769531 -0.01160156 2.07539063 -0.02320313 3.14453125 -0.03515625 C19.63622457 0.02645655 33.43406622 5.77074114 45.35546875 17.19140625 C62.20835424 34.35126597 68.02221393 56.27006868 67.85351562 79.88208008 C67.32387565 102.7682017 59.09516482 123.50629931 42.5 139.375 C26.95487212 152.59923787 8.16768246 154.81902955 -11.5 153.375 C-26.05926743 151.44037843 -37.26359303 144.55864198 -47.5 134.375 C-48.43972656 133.48748047 -48.43972656 133.48748047 -49.3984375 132.58203125 C-65.05359711 116.53726359 -67.95561726 92.51758263 -67.7109375 71.25390625 C-67.25462916 53.70293532 -61.79921231 37.61909409 -51.5 23.375 C-51.04109375 22.73175781 -50.5821875 22.08851562 -50.109375 21.42578125 C-38.04102676 5.99355433 -18.87100454 -0.21098017 0 0 Z M-26.5 25.375 C-27.551875 26.1175 -28.60375 26.86 -29.6875 27.625 C-42.54876282 40.20045698 -47.65476154 57.95895901 -48.49609375 75.51953125 C-48.51495491 94.13549953 -42.99504388 111.51633742 -30.1875 125.25 C-20.46891897 134.50500306 -8.86713586 136.99511734 4.1953125 136.6875 C13.71440802 136.18406612 21.46552779 132.69229175 28.5 126.375 C29.40685547 125.60542969 29.40685547 125.60542969 30.33203125 124.8203125 C40.86300517 115.23001381 46.61600088 99.54808974 47.72265625 85.56079102 C48.52087168 65.23210192 45.87643108 46.63660078 32.46875 30.40625 C23.60597753 21.26211967 12.42953514 16.87899633 -0.16796875 16.28125 C-10.21082101 16.5638156 -18.37286432 19.59108957 -26.5 25.375 Z " fill="#000000" transform="translate(2292.5,1165.625)"/>
<path d="M0 0 C15.69758647 13.52664366 25.72688186 32.5706697 27.2890625 53.42578125 C27.33546875 54.68261719 27.33546875 54.68261719 27.3828125 55.96484375 C27.434375 57.19460938 27.4859375 58.424375 27.5390625 59.69140625 C28.15528169 81.68786367 23.20429466 104.63110583 8.0703125 121.33984375 C-3.22900713 133.26701035 -17.98303677 140.5341931 -34.52734375 141.30078125 C-54.23145012 141.64606792 -70.62789598 138.26929386 -85.34375 124.2265625 C-86.09398438 123.48019531 -86.84421875 122.73382812 -87.6171875 121.96484375 C-88.55691406 121.07732422 -88.55691406 121.07732422 -89.515625 120.171875 C-105.49672641 103.79305388 -108.14077989 79.54415826 -107.88671875 57.8984375 C-107.33173801 37.75236342 -99.72815858 17.75759766 -85.08984375 3.50390625 C-61.99078128 -16.44679046 -24.59833985 -19.12796278 0 0 Z M-73.6171875 18.96484375 C-86.9738777 36.19148041 -89.82722746 57.26364266 -87.32861328 78.40673828 C-85.00062131 92.40281351 -78.59320305 107.22601141 -67.046875 115.89453125 C-55.4201126 123.69968373 -44.39627718 125.44169909 -30.6171875 123.96484375 C-18.7250064 121.41387848 -9.78318585 113.96036251 -2.91796875 104.09765625 C7.61833609 86.82191317 10.57860395 65.30219888 5.8828125 45.65234375 C1.72688887 31.36817268 -4.61958747 18.28607763 -17.5703125 10.09765625 C-36.81151784 -0.21365636 -58.6985788 2.71272812 -73.6171875 18.96484375 Z " fill="#000000" transform="translate(3027.6171875,892.03515625)"/>
<path d="M0 0 C5.94 0 11.88 0 18 0 C18.33 24.75 18.66 49.5 19 75 C21.31 72.03 23.62 69.06 26 66 C35.40026117 56.59973883 46.82387814 51.82523854 60.13427734 51.61962891 C74.2338506 51.64495059 85.64504434 52.81321501 97 62 C97.61359375 62.47824219 98.2271875 62.95648437 98.859375 63.44921875 C109.79533624 73.05447674 113.82629873 89.05887077 115 103 C115.12641788 106.34037774 115.12711906 109.67537801 115.11352539 113.01782227 C115.11367142 113.97498642 115.11381744 114.93215057 115.1139679 115.9183197 C115.11327671 119.05103907 115.10552185 122.18369739 115.09765625 125.31640625 C115.09578924 127.50072701 115.09436668 129.68504818 115.09336853 131.86936951 C115.08956561 137.59527764 115.07975448 143.32116007 115.06866455 149.04705811 C115.05840244 154.89920708 115.05386065 160.75136023 115.04882812 166.60351562 C115.03813007 178.06902348 115.02055145 189.53450557 115 201 C108.73 201 102.46 201 96 201 C95.9906543 197.94266602 95.98130859 194.88533203 95.97167969 191.73535156 C95.93781815 181.60116289 95.88221818 171.46717589 95.81609726 161.33314896 C95.77669322 155.19262925 95.74446994 149.05225145 95.72900391 142.91162109 C95.71379092 136.97865039 95.67926262 131.04606998 95.63169098 125.11327362 C95.61692506 122.85686396 95.60896175 120.60039856 95.60811615 118.34394073 C95.7951139 96.44881951 95.7951139 96.44881951 85 78 C76.8863188 70.54945621 66.7122542 69.01306372 56 69 C46.51387981 69.75395464 37.14451432 73.64855761 30.66015625 80.74609375 C19.06115904 96.4934382 18.54938721 114.17354006 18.48828125 132.93359375 C18.47139616 134.90756823 18.45324092 136.88153222 18.43388367 138.85548401 C18.38679292 143.99928503 18.35672067 149.14304348 18.33044434 154.2869873 C18.30043001 159.55664476 18.25397254 164.826156 18.20898438 170.09570312 C18.12341797 180.39707487 18.05739123 190.69843272 18 201 C12.06 201 6.12 201 0 201 C0 134.67 0 68.34 0 0 Z " fill="#000000" transform="translate(2747,1114)"/>
<path d="M0 0 C1.84440674 0.01135986 1.84440674 0.01135986 3.72607422 0.02294922 C17.84511177 0.27877624 30.65596727 2.70718948 41.43359375 12.47265625 C46.31598294 17.55213271 49.1347137 22.72245328 51.1875 29.4375 C51.38472656 30.02917969 51.58195312 30.62085938 51.78515625 31.23046875 C52.3958238 34.58024708 52.1875 38.03251399 52.1875 41.4375 C45.9175 41.4375 39.6475 41.4375 33.1875 41.4375 C32.630625 39.74625 32.07375 38.055 31.5 36.3125 C28.97480094 29.49708386 26.10086092 25.2781519 19.6875 21.6875 C7.72759324 16.20292737 -6.49313634 16.04515234 -18.875 20.25 C-25.26504644 22.88284905 -29.18714326 25.81503441 -32.08203125 32.16015625 C-33.87674552 37.75544193 -33.39847981 42.67956058 -31.5625 48.1875 C-24.88205087 57.99727214 -7.74510126 60.19060198 2.9375 62.9375 C22.63884403 68.04511947 22.63884403 68.04511947 32.1640625 71.59765625 C32.81042664 71.83790527 33.45679077 72.0781543 34.1227417 72.32568359 C39.18272542 74.28259647 43.29159663 76.67462748 47.1875 80.4375 C47.73664062 80.94796875 48.28578125 81.4584375 48.8515625 81.984375 C56.04519629 89.42606513 57.7590021 98.53338886 57.58984375 108.59008789 C57.09801193 120.30323031 52.67338626 130.43880118 44.1875 138.625 C35.61022406 145.75829009 25.06472347 150.22806398 14.1875 152.4375 C12.88425781 152.71013672 12.88425781 152.71013672 11.5546875 152.98828125 C-8.16126462 155.61859969 -27.55593062 153.56389395 -44.05078125 141.84765625 C-51.96482242 135.51344251 -56.88428788 126.85227678 -58.14453125 116.78515625 C-58.40180593 114.33933164 -58.61104354 111.88855357 -58.8125 109.4375 C-52.2125 109.4375 -45.6125 109.4375 -38.8125 109.4375 C-38.296875 111.2525 -37.78125 113.0675 -37.25 114.9375 C-34.75470157 122.26797879 -31.83783458 127.30204399 -24.8671875 131 C-12.12235555 136.51127868 3.73368209 137.98823812 17.125 133.6875 C25.27091086 130.37136324 31.58312899 125.64624203 35.5625 117.6875 C36.9671657 110.38323835 37.2177763 103.64957549 33.37890625 97.08203125 C28.3336649 90.11794401 19.19659673 87.14748987 11.1875 85.0625 C10.43130371 84.85753906 9.67510742 84.65257812 8.89599609 84.44140625 C4.31372496 83.21383171 -0.2868524 82.07287896 -4.8984375 80.9609375 C-40.35204721 72.40003322 -40.35204721 72.40003322 -49.8125 58.4375 C-54.76614707 49.36552674 -55.10672216 38.51919729 -52.5625 28.625 C-48.46035746 16.66041758 -40.7532724 10.52404593 -29.80078125 5.015625 C-20.1059248 0.8869732 -10.44690336 -0.09022 0 0 Z " fill="#000000" transform="translate(2663.8125,1165.5625)"/>
<path d="M0 0 C1.3303125 0.86625 1.3303125 0.86625 2.6875 1.75 C9.61472214 8.48999992 12.99999147 16.62348942 15 26 C15 27.98 15 29.96 15 32 C8.4 32 1.8 32 -5 32 C-5.68359375 29.52604167 -6.3671875 27.05208333 -7.05078125 24.578125 C-8.02282983 21.93799305 -9.28854605 20.20523478 -11 18 C-11 17.34 -11 16.68 -11 16 C-12.3327365 15.33214099 -13.66620467 14.66574186 -15 14 C-15.65097656 13.67 -16.30195313 13.34 -16.97265625 13 C-28.65604398 7.40944438 -41.56660812 6.3308186 -54 10 C-60.4446975 12.48956974 -65.24044151 15.12568986 -69 21 C-71.66374642 27.53828667 -71.3711132 32.73544475 -68.6875 39.125 C-61.40550545 46.91504068 -50.00357274 49.4416939 -40 52 C-37.44101411 52.68212432 -34.88242138 53.36572527 -32.32421875 54.05078125 C-31.08075684 54.38029785 -29.83729492 54.70981445 -28.55615234 55.04931641 C6.50312667 64.42188489 6.50312667 64.42188489 15.671875 78.58203125 C20.7611936 88.80355597 20.93689518 102.30730448 17.4375 113.125 C12.01635452 125.41292976 2.40722062 133.45661806 -9.6796875 138.71484375 C-29.4385445 146.3626837 -51.06666968 146.30940527 -70.8515625 138.9375 C-82.61296059 133.69402841 -90.78907676 124.31921021 -95.375 112.4375 C-96 109 -96 109 -96 100 C-89.4 100 -82.8 100 -76 100 C-75.34 102.97 -74.68 105.94 -74 109 C-70.47637056 116.67567688 -65.35243028 120.63497267 -57.81640625 123.96484375 C-45.90909145 128.09906345 -29.07160466 128.03614658 -17.4140625 123.265625 C-9.82562431 119.28722051 -4.74669705 114.80341688 -1.75 106.5625 C-0.32938367 99.81457242 -0.51310714 94.01311115 -4 88 C-12.26465698 77.7645402 -26.5484013 75.38885702 -38.74429321 72.54760742 C-78.2029151 63.29240603 -78.2029151 63.29240603 -87.0625 49.875 C-92.20699574 40.82845278 -92.41838635 29.7534532 -90.3125 19.7265625 C-86.81610626 9.32479114 -80.5940736 2.27160996 -71 -3 C-49.46429704 -12.17876327 -20.08705606 -13.53788461 0 0 Z " fill="#000000" transform="translate(2531,889)"/>
<path d="M0 0 C7.26 0 14.52 0 22 0 C25.40752393 7.37789277 28.60023067 14.7949678 31.59765625 22.34765625 C32.02520706 23.41856506 32.45275787 24.48947388 32.89326477 25.59283447 C34.28553373 29.08172267 35.67411774 32.5720635 37.0625 36.0625 C38.27746118 39.11115782 39.49288435 42.15963098 40.70844269 45.20805073 C40.95376488 45.82329703 41.19908707 46.43854334 41.45184326 47.07243347 C41.69835381 47.69065664 41.94486435 48.30887981 42.19884491 48.94583702 C42.95245305 50.83623813 43.70566473 52.72679682 44.45880127 54.61738586 C47.92176298 63.30853133 51.4035325 71.99194559 54.89453125 80.671875 C56.27734929 84.11376907 57.65992689 87.55575965 59.04244995 90.99777222 C59.92978602 93.20502704 60.81823174 95.41183609 61.70779419 97.61819458 C62.94110472 100.6778232 64.17023527 103.73909922 65.3984375 106.80078125 C65.76608719 107.70959045 66.13373688 108.61839966 66.51252747 109.55474854 C66.84274399 110.38013123 67.17296051 111.20551392 67.51318359 112.0559082 C67.80212494 112.77382034 68.09106628 113.49173248 68.38876343 114.23139954 C69 116 69 116 69 118 C69.66 118 70.32 118 71 118 C71.11849808 117.30073395 71.23699615 116.6014679 71.35908508 115.88101196 C72.05878323 112.73576025 73.0854699 109.9066239 74.25463867 106.90380859 C74.7241243 105.69342926 75.19360992 104.48304993 75.67732239 103.23599243 C76.19483766 101.91506234 76.71255918 100.59421304 77.23046875 99.2734375 C77.77005621 97.88926246 78.30945579 96.50501416 78.84867859 95.12069702 C84.63564517 80.28982201 90.54369941 65.50697039 96.46856689 50.73077393 C97.60620781 47.89214303 98.74187214 45.0527231 99.87755013 42.21330643 C105.51737589 28.11403909 111.17963715 14.02598262 117 0 C123.6 0 130.2 0 137 0 C136.29752923 3.51235383 135.66409041 6.15377127 134.37515259 9.38510132 C134.03942734 10.23278076 133.70370209 11.08046021 133.35780334 11.9538269 C132.98916672 12.87189117 132.62053009 13.78995544 132.24072266 14.73583984 C131.85169266 15.71445984 131.46266266 16.69307983 131.06184387 17.70135498 C129.76670592 20.95620832 128.46543767 24.20857347 127.1640625 27.4609375 C126.24659786 29.76244782 125.3294799 32.06409638 124.41268921 34.36587524 C122.47660406 39.22428104 120.53786026 44.0816165 118.59667969 48.93798828 C116.16942982 55.01041623 113.74689506 61.08471407 111.32609653 67.15971661 C101.05871654 92.92451183 90.74016095 118.66812757 80.32424927 144.3732605 C73.49500217 161.22711867 66.73664151 178.10894291 60 195 C53.07 195 46.14 195 39 195 C42.37109851 184.88670447 42.37109851 184.88670447 43.82519531 181.50927734 C44.14852844 180.75174164 44.47186157 179.99420593 44.80499268 179.2137146 C45.31144318 178.03671494 45.31144318 178.03671494 45.828125 176.8359375 C46.55289367 175.12013373 47.2768277 173.40397721 48 171.6875 C49.12680247 169.02020885 50.25842469 166.3554493 51.40429688 163.69628906 C52.51928557 161.10322561 53.61280025 158.50194999 54.703125 155.8984375 C55.04885559 155.1097226 55.39458618 154.32100769 55.75079346 153.50839233 C58.40262241 147.097127 58.05182588 142.58738946 55.59570312 136.09228516 C54.99920535 134.65439786 54.39386821 133.22015593 53.78125 131.7890625 C53.45194992 131.00134964 53.12264984 130.21363678 52.78337097 129.40205383 C51.69638769 126.80649372 50.59813539 124.21585913 49.5 121.625 C48.72675834 119.78364629 47.95439423 117.94192385 47.18286133 116.09985352 C45.58182552 112.27917033 43.97703909 108.46009537 42.36962891 104.64208984 C39.11950056 96.91406554 35.91728253 89.16632002 32.71392822 81.41882324 C25.87785233 64.89305591 19.00206893 48.3837378 12.125 31.875 C11.68803802 30.82577362 11.25107605 29.77654724 10.8008728 28.69552612 C9.55776877 25.71090635 8.31413836 22.72650652 7.0703125 19.7421875 C6.7023204 18.85861069 6.33432831 17.97503387 5.95518494 17.06468201 C5.60919754 16.23493362 5.26321014 15.40518524 4.90673828 14.55029297 C4.58368713 13.77329041 4.26063599 12.99628784 3.92779541 12.19573975 C3.32680039 10.77341254 2.71215938 9.35674344 2.08148193 7.94732666 C0.80692543 5.09788551 0 3.16395276 0 0 Z " fill="#000000" transform="translate(2716,884)"/>
<path d="M0 0 C11.98912693 9.72195228 16.62812937 24.64526644 18.22756767 39.46627617 C18.57686865 43.6430768 18.56806191 47.80540444 18.55102539 51.99438477 C18.55117142 52.95154892 18.55131744 53.90871307 18.5514679 54.8948822 C18.55077671 58.02760157 18.54302185 61.16025989 18.53515625 64.29296875 C18.53328924 66.47728951 18.53186668 68.66161068 18.53086853 70.84593201 C18.52706561 76.57184014 18.51725448 82.29772257 18.50616455 88.02362061 C18.49590244 93.87576958 18.49136065 99.72792273 18.48632812 105.58007812 C18.47563007 117.04558598 18.45805145 128.51106807 18.4375 139.9765625 C12.1675 139.9765625 5.8975 139.9765625 -0.5625 139.9765625 C-0.57708252 136.90875488 -0.59166504 133.84094727 -0.60668945 130.68017578 C-0.65712099 120.52204582 -0.72373127 110.36406776 -0.79821491 100.20608711 C-0.84286228 94.04983973 -0.88213099 87.89365767 -0.90893555 81.73730469 C-0.93502446 75.79142744 -0.97546679 69.84580231 -1.02568626 63.90008163 C-1.04231714 61.63643413 -1.05385487 59.37274306 -1.06011391 57.10904312 C-1.06979598 53.92806071 -1.09790496 50.74771787 -1.13012695 47.56689453 C-1.12869186 46.63972122 -1.12725677 45.71254791 -1.1257782 44.75727844 C-1.2702412 34.61336462 -3.95476611 25.78026632 -10.5625 17.9765625 C-18.01469894 10.77591458 -27.06001308 8.42500987 -37.1875 7.7265625 C-47.87635021 7.93093822 -56.69930998 11.57532078 -64.49609375 18.7578125 C-78.29222995 33.23633823 -78.0122999 54.0556295 -78.07421875 72.7890625 C-78.0911083 74.73918759 -78.1092641 76.68930209 -78.12861633 78.6394043 C-78.17565884 83.71578657 -78.20576178 88.79212588 -78.23205566 93.86865234 C-78.26209495 99.0713754 -78.30854353 104.27395089 -78.35351562 109.4765625 C-78.4390268 119.64316796 -78.50508015 129.80975955 -78.5625 139.9765625 C-84.5025 139.9765625 -90.4425 139.9765625 -96.5625 139.9765625 C-96.8925 92.1265625 -97.2225 44.2765625 -97.5625 -5.0234375 C-91.6225 -5.0234375 -85.6825 -5.0234375 -79.5625 -5.0234375 C-78.32490177 -1.31064281 -78.20641103 2.28962596 -78 6.1640625 C-77.95681641 6.91365234 -77.91363281 7.66324219 -77.86914062 8.43554688 C-77.76327315 10.28234625 -77.6624024 12.12943084 -77.5625 13.9765625 C-77.11261719 13.3475 -76.66273437 12.7184375 -76.19921875 12.0703125 C-58.3390804 -11.69548282 -24.63514483 -16.82924138 0 0 Z " fill="#000000" transform="translate(1962.5625,889.0234375)"/>
<path d="M0 0 C6.6 0 13.2 0 20 0 C24.49982929 8.99965859 24.49982929 8.99965859 25.89672852 12.40087891 C26.21619949 13.17446243 26.53567047 13.94804596 26.86482239 14.74507141 C27.3667939 15.9734095 27.3667939 15.9734095 27.87890625 17.2265625 C28.24356491 18.11180099 28.60822357 18.99703949 28.9839325 19.90910339 C30.17955426 22.81327318 31.37100993 25.71913296 32.5625 28.625 C33.40105229 30.66378514 34.23992478 32.70243862 35.07910156 34.7409668 C36.83081419 38.99689358 38.58113193 43.2533902 40.33056641 47.51025391 C44.2174626 56.96441993 48.12361572 66.41062824 52.02853394 75.85736084 C57.6954548 89.56755734 63.35506513 103.2807359 69 117 C72.31242727 109.85634174 75.41673974 102.66443147 78.31542969 95.34375 C78.71444992 94.34234482 79.11347015 93.34093964 79.52458191 92.30918884 C80.82626879 89.04048268 82.12413759 85.77027595 83.421875 82.5 C84.33135256 80.21353921 85.24104431 77.9271636 86.15093994 75.64086914 C88.04871192 70.87076466 89.94473983 66.09997227 91.83935547 61.32861328 C94.27037259 55.20645668 96.70448152 49.08553552 99.13972092 42.96505737 C101.46402601 37.12297035 103.78673734 31.2802501 106.109375 25.4375 C106.55312218 24.32165527 106.99686935 23.20581055 107.45406342 22.05615234 C108.70431169 18.91148413 109.9534171 15.76636458 111.20214844 12.62109375 C111.76004311 11.21850563 111.76004311 11.21850563 112.32920837 9.7875824 C112.66833755 8.9326973 113.00746674 8.07781219 113.35687256 7.19702148 C113.79927088 6.08326393 113.79927088 6.08326393 114.25060654 4.94700623 C114.87888443 3.3146715 115.44689515 1.65931456 116 0 C122.93 0 129.86 0 137 0 C132.17648498 13.00957657 127.12141573 25.91763727 122 38.8125 C121.56578735 39.90687378 121.13157471 41.00124756 120.6842041 42.12878418 C117.12905492 51.08834769 113.5659561 60.04473384 110 69 C109.69136017 69.77515709 109.38272034 70.55031418 109.06472778 71.34896088 C104.64795333 82.44119061 100.22595087 93.53132355 95.79833984 104.61923218 C94.43108279 108.04331539 93.06493948 111.46783977 91.69970703 114.89273071 C90.08005173 118.95550821 88.45781072 123.01724365 86.83356476 127.07818794 C86.22888431 128.5911908 85.62508964 130.10454798 85.02220917 131.61826897 C84.19526653 133.6940731 83.36514911 135.76857866 82.53417969 137.84277344 C82.06679382 139.01306091 81.59940796 140.18334839 81.11785889 141.38909912 C80 144 80 144 79 145 C77.5112814 145.08669432 76.018555 145.10703494 74.52734375 145.09765625 C73.62822266 145.09443359 72.72910156 145.09121094 71.80273438 145.08789062 C70.85720703 145.07951172 69.91167969 145.07113281 68.9375 145.0625 C67.5134082 145.05573242 67.5134082 145.05573242 66.06054688 145.04882812 C63.70696631 145.03700109 61.35352419 145.01968094 59 145 C55.5852511 137.62576778 52.37880039 130.19327591 49.33203125 122.66015625 C48.89964645 121.59653366 48.46726166 120.53291107 48.02177429 119.4370575 C47.09670269 117.1607899 46.17264044 114.88411188 45.24951172 112.60705566 C43.29085323 107.7757979 41.32717071 102.94658711 39.36386108 98.11721802 C38.36183044 95.65221571 37.36006127 93.1871071 36.35855103 90.72189331 C32.12255635 80.29561089 27.8710302 69.87574395 23.60891724 59.46011353 C22.50821843 56.77008524 21.40826286 54.07975386 20.30834961 51.3894043 C16.81478215 42.84841399 13.30659505 34.31375623 9.7734375 25.7890625 C9.10739911 24.18002244 8.44138292 22.5709732 7.77539062 20.96191406 C6.54116969 17.98038848 5.30229725 15.00085727 4.06054688 12.02246094 C3.51676884 10.71035203 2.97313953 9.39818147 2.4296875 8.0859375 C1.95772949 6.9520459 1.48577148 5.8181543 0.99951172 4.64990234 C0 2 0 2 0 0 Z " fill="#000000" transform="translate(2053,884)"/>
<path d="M0 0 C0 4.95 0 9.9 0 15 C-1.27875 14.96519531 -2.5575 14.93039062 -3.875 14.89453125 C-5.58332009 14.86637213 -7.29165452 14.83907426 -9 14.8125 C-9.83917969 14.78736328 -10.67835938 14.76222656 -11.54296875 14.73632812 C-17.40480181 14.66816728 -21.68195271 15.47348584 -27 18 C-31.17948112 23.14397677 -32.11775127 27.13786283 -32.31640625 33.63671875 C-32.35451416 34.80678467 -32.39262207 35.97685059 -32.43188477 37.18237305 C-32.47498779 38.66906494 -32.51809082 40.15575684 -32.5625 41.6875 C-32.706875 46.410625 -32.85125 51.13375 -33 56 C-22.44 56 -11.88 56 -1 56 C-1 61.61 -1 67.22 -1 73 C-11.56 73 -22.12 73 -33 73 C-33 115.24 -33 157.48 -33 201 C-39.27 201 -45.54 201 -52 201 C-52 158.76 -52 116.52 -52 73 C-61.57 73 -71.14 73 -81 73 C-81 67.39 -81 61.78 -81 56 C-71.43 56 -61.86 56 -52 56 C-52.07833398 47.69968833 -52.07833398 47.69968833 -52.18017578 39.3996582 C-52.29509086 14.92459995 -52.29509086 14.92459995 -44.2421875 6.06640625 C-32.09300744 -5.39193808 -15.05477845 -4.88263085 0 0 Z " fill="#000000" transform="translate(2215,1114)"/>
<path d="M0 0 C0 4.95 0 9.9 0 15 C-1.27875 14.96519531 -2.5575 14.93039062 -3.875 14.89453125 C-5.58332009 14.86637213 -7.29165452 14.83907426 -9 14.8125 C-9.83917969 14.78736328 -10.67835938 14.76222656 -11.54296875 14.73632812 C-18.29340245 14.65783471 -24.1497781 15.44980146 -29.375 20.125 C-33.63535466 27.66255055 -33.25604835 36.13423541 -33.125 44.5625 C-33.08375 48.336875 -33.0425 52.11125 -33 56 C-22.44 56 -11.88 56 -1 56 C-1 61.61 -1 67.22 -1 73 C-11.56 73 -22.12 73 -33 73 C-33 115.24 -33 157.48 -33 201 C-39.27 201 -45.54 201 -52 201 C-52 158.76 -52 116.52 -52 73 C-61.57 73 -71.14 73 -81 73 C-81 67.39 -81 61.78 -81 56 C-71.43 56 -61.86 56 -52 56 C-52.117652 46.71224404 -52.117652 46.71224404 -52.27026367 37.42504883 C-52.3390809 26.53490744 -51.66879916 15.02913428 -45.0078125 5.94140625 C-32.9937669 -5.67528765 -14.75894321 -4.8522553 0 0 Z " fill="#000000" transform="translate(3145,828)"/>
<path d="M0 0 C0 12.54 0 25.08 0 38 C10.89 38 21.78 38 33 38 C33 43.61 33 49.22 33 55 C22.11 55 11.22 55 0 55 C0.06296896 68.03074742 0.13842283 81.06125962 0.23571491 94.09179688 C0.28039784 100.14272728 0.31965878 106.19359067 0.34643555 112.24462891 C0.3724889 118.08675845 0.41290628 123.92862985 0.46318626 129.77059937 C0.47984112 131.99682397 0.49136398 134.22309321 0.49761391 136.44937134 C0.50726976 139.57329217 0.5353478 142.69655461 0.56762695 145.8203125 C0.56619186 146.73597488 0.56475677 147.65163727 0.5632782 148.595047 C0.65448509 154.85700417 1.34089522 160.94242997 5.62109375 165.86401367 C11.65400057 169.57214309 17.0488219 169.59524504 24 169.3125 C25.06089844 169.28994141 26.12179688 169.26738281 27.21484375 169.24414062 C29.81051329 169.1856796 32.40544819 169.09601549 35 169 C35 174.28 35 179.56 35 185 C21.96195359 188.41981545 5.94457561 189.36157724 -6.1953125 182.81640625 C-12.33030255 178.8207393 -15.49701222 173.08663738 -17.54936886 166.14074326 C-18.03668424 163.82572988 -18.12297942 161.74613413 -18.12025452 159.38092041 C-18.12162918 158.45827896 -18.12300385 157.53563751 -18.12442017 156.58503723 C-18.12082489 155.58018784 -18.11722961 154.57533844 -18.11352539 153.54003906 C-18.11367142 152.47631577 -18.11381744 151.41259247 -18.1139679 150.31663513 C-18.11327106 146.79961103 -18.10548933 143.28263985 -18.09765625 139.765625 C-18.09579126 137.32753529 -18.09436774 134.8894452 -18.09336853 132.45135498 C-18.08954976 126.03325364 -18.0797249 119.61517492 -18.06866455 113.19708252 C-18.0584367 106.64831854 -18.05386796 100.09955091 -18.04882812 93.55078125 C-18.03810209 80.7005093 -18.02051043 67.85026007 -18 55 C-27.57 55 -37.14 55 -47 55 C-47 49.39 -47 43.78 -47 38 C-37.43 38 -27.86 38 -18 38 C-18 27.77 -18 17.54 -18 7 C-14.3803125 5.2675 -14.3803125 5.2675 -10.6875 3.5 C-9.93170654 3.13455078 -9.17591309 2.76910156 -8.3972168 2.39257812 C-5.42821556 0.98978766 -3.32145813 0 0 0 Z " fill="#000000" transform="translate(2665,846)"/>
<path d="M0 0 C3.96 0 7.92 0 12 0 C15.60333494 8.44126431 18.82990957 16.93273556 21.828125 25.60546875 C22.49175118 27.50836784 23.15538039 29.41126588 23.81919479 31.31409931 C24.9658191 34.60418328 26.10758716 37.89595189 27.25 41.1875 C28.63054276 45.16313644 30.01222361 49.13836743 31.39813232 53.11213684 C32.25676595 55.57510135 33.11267711 58.03901694 33.96563721 60.50395203 C34.34983826 61.60632706 34.73403931 62.70870209 35.12988281 63.84448242 C35.46787903 64.81866623 35.80587524 65.79285004 36.15411377 66.79655457 C36.80631759 68.94188891 36.80631759 68.94188891 38 70 C38.26895584 69.24102417 38.53791168 68.48204834 38.8150177 67.70007324 C41.35925006 60.52082729 43.90418517 53.34183103 46.44989491 46.16310883 C47.7584023 42.47313271 49.06664504 38.78306322 50.37426758 35.09277344 C51.6379961 31.52639033 52.90243989 27.96026155 54.16736412 24.39430237 C54.64799772 23.03895458 55.12838064 21.68351787 55.60849953 20.32798767 C58.01645698 13.53005005 60.43519258 6.74050692 63 0 C67.62 0 72.24 0 77 0 C77.65073486 1.87703613 78.30146973 3.75407227 78.97192383 5.68798828 C81.12788145 11.90372079 83.28761151 18.1181323 85.44989491 24.33166695 C86.76017265 28.09732114 88.06895152 31.86348211 89.37426758 35.63085938 C90.63506809 39.2695762 91.89985443 42.90688517 93.16736412 46.54327011 C93.64917581 47.92777431 94.12957256 49.31277179 94.60849953 50.69827652 C95.28184031 52.64540835 95.96028539 54.5906925 96.63989258 56.53564453 C97.02405838 57.64150909 97.40822418 58.74737366 97.80403137 59.88674927 C99.01630344 63.04243982 100.43886411 66.00355326 102 69 C102.18268433 68.46003387 102.36536865 67.92006775 102.55358887 67.36373901 C104.49825368 61.6174608 106.44645112 55.87238823 108.39648438 50.12792969 C109.11870044 47.99899011 109.84008747 45.86976907 110.56054688 43.74023438 C115.51832645 29.08847239 120.65156611 14.51383558 126 0 C129.96 0 133.92 0 138 0 C137.42141362 5.39121345 136.0995449 9.98286501 134.1484375 15.02734375 C133.71164925 16.18291527 133.71164925 16.18291527 133.26603699 17.36183167 C132.30893919 19.88960798 131.34196709 22.41348455 130.375 24.9375 C129.70619894 26.69893381 129.03816029 28.46065728 128.37084961 30.22265625 C126.9723176 33.91371346 125.57044568 37.60347777 124.16650391 41.29248047 C120.936419 49.78981337 117.75304631 58.30467078 114.56646729 66.81838989 C112.96409191 71.09835604 111.3589259 75.37727495 109.75390625 79.65625 C109.2155624 81.09179171 108.6772308 82.52733801 108.13891602 83.96289062 C107.57515259 85.46625977 107.57515259 85.46625977 107 87 C103.04 87 99.08 87 95 87 C94.52691406 85.66114746 94.05382813 84.32229492 93.56640625 82.94287109 C91.77069493 77.86178771 89.97365867 72.78117368 88.17626953 67.70068359 C87.40606463 65.52307232 86.63619497 63.34534243 85.86669922 61.16748047 C80.65450389 46.41662701 75.37539374 31.69220675 70 17 C68.08042023 19.87936965 67.06798838 22.28180228 65.90869141 25.52197266 C65.29763046 27.21986435 65.29763046 27.21986435 64.67422485 28.95205688 C64.23774628 30.17701874 63.8012677 31.40198059 63.3515625 32.6640625 C62.89362877 33.93875038 62.43523734 35.21327392 61.97640991 36.48764038 C60.52140227 40.53180584 59.07295798 44.57830625 57.625 48.625 C55.95273441 53.29674822 54.27772116 57.96748725 52.59745407 62.63636398 C51.93001581 64.4946453 51.26678982 66.35443784 50.60366821 68.21426392 C48.30589693 74.60659572 45.85276107 80.83451437 43 87 C39.04 87 35.08 87 31 87 C30.41621582 85.41469482 29.83243164 83.82938965 29.23095703 82.19604492 C27.25549129 76.8317198 25.27978897 71.46748184 23.30394173 66.10329723 C21.88058712 62.23903341 20.45742402 58.37469914 19.0344429 54.51029778 C18.34200768 52.63003448 17.64938104 50.74984178 16.95672607 48.86965942 C16.03155549 46.35827047 15.10722321 43.84657508 14.18341064 41.33468628 C11.83275668 34.94701269 9.466119 28.56583194 7.07324219 22.19384766 C6.60297125 20.93789861 6.13282532 19.68190275 5.66281128 18.42585754 C4.77589051 16.0585067 3.88505035 13.69261952 2.98977661 11.32841492 C2.59595795 10.27555801 2.20213928 9.22270111 1.79638672 8.13793945 C1.44824921 7.21463333 1.10011169 6.29132721 0.74142456 5.34004211 C0 3 0 3 0 0 Z " fill="#808285" transform="translate(2815,560)"/>
<path d="M0 0 C0 5.61 0 11.22 0 17 C-1.918125 16.95875 -3.83625 16.9175 -5.8125 16.875 C-15.26770201 16.89555479 -23.89802303 17.85204875 -32 23 C-32.59425781 23.36351562 -33.18851563 23.72703125 -33.80078125 24.1015625 C-43.41080708 31.04805567 -46.43790372 43.22447634 -48.35421753 54.27822876 C-49.66029848 62.87252314 -49.48372081 71.57795022 -49.51171875 80.25 C-49.52860694 82.24496535 -49.54676257 84.23992033 -49.56611633 86.23486328 C-49.61317354 91.42961381 -49.64326715 96.62432229 -49.66955566 101.81921387 C-49.69958733 107.14258121 -49.74603863 112.46580417 -49.79101562 117.7890625 C-49.87654364 128.19264848 -49.9425889 138.59622084 -50 149 C-55.94 149 -61.88 149 -68 149 C-68.33 101.15 -68.66 53.3 -69 4 C-63.06 4 -57.12 4 -51 4 C-49.47893366 7.04213267 -49.62570662 10.28047572 -49.4375 13.625 C-49.39431641 14.33140625 -49.35113281 15.0378125 -49.30664062 15.765625 C-49.20055249 17.51018537 -49.09977111 19.25506697 -49 21 C-48.5875 20.35933594 -48.175 19.71867187 -47.75 19.05859375 C-40.51110294 8.21640642 -33.23608843 2.07015775 -20.375 -0.8125 C-13.66793886 -1.42476284 -6.66963094 -0.50022232 0 0 Z " fill="#000000" transform="translate(3015,1166)"/>
<path d="M0 0 C0 5.61 0 11.22 0 17 C-2.10375 16.95875 -4.2075 16.9175 -6.375 16.875 C-17.20867469 16.90769721 -27.6490583 18.32908265 -36.04296875 25.82421875 C-47.00018299 37.71595019 -49.09454533 52.70838406 -49.20532227 68.28344727 C-49.22017166 69.60215065 -49.22017166 69.60215065 -49.23532104 70.94749451 C-49.26662135 73.82043877 -49.29156745 76.6933995 -49.31640625 79.56640625 C-49.33700304 81.57136944 -49.35800018 83.57632856 -49.37937927 85.58128357 C-49.43431871 90.83367593 -49.48385091 96.08610564 -49.53222656 101.33856201 C-49.58264822 106.7081633 -49.63822594 112.07771101 -49.69335938 117.44726562 C-49.80059642 127.96479948 -49.90163945 138.48237938 -50 149 C-55.94 149 -61.88 149 -68 149 C-68.33 101.15 -68.66 53.3 -69 4 C-63.06 4 -57.12 4 -51 4 C-49.47893366 7.04213267 -49.62570662 10.28047572 -49.4375 13.625 C-49.39431641 14.33140625 -49.35113281 15.0378125 -49.30664062 15.765625 C-49.20055249 17.51018537 -49.09977111 19.25506697 -49 21 C-48.5875 20.35933594 -48.175 19.71867187 -47.75 19.05859375 C-40.51110294 8.21640642 -33.23608843 2.07015775 -20.375 -0.8125 C-13.66793886 -1.42476284 -6.66963094 -0.50022232 0 0 Z " fill="#000000" transform="translate(2451,1166)"/>
<path d="M0 0 C1.66289062 0.02030273 1.66289062 0.02030273 3.359375 0.04101562 C6.07312907 0.07610727 8.78663026 0.12990489 11.5 0.1875 C11.5 6.1275 11.5 12.0675 11.5 18.1875 C9.2725 17.960625 7.045 17.73375 4.75 17.5 C-5.55904679 16.69349847 -15.35419386 18.43459145 -23.5 25.1875 C-32.52907566 33.47989375 -36.72053478 44.5505264 -37.69638443 56.61551285 C-37.78179767 59.09305257 -37.81256505 61.56446328 -37.81884766 64.04345703 C-37.82889328 64.9715065 -37.8389389 65.89955597 -37.84928894 66.85572815 C-37.87987518 69.885584 -37.89708709 72.91535252 -37.9140625 75.9453125 C-37.93279395 78.06095112 -37.95236881 80.17658242 -37.9727478 82.29220581 C-38.02386617 87.83227202 -38.06360004 93.37236239 -38.10089111 98.91253662 C-38.14105859 104.57716755 -38.19209254 110.24169971 -38.2421875 115.90625 C-38.33870629 126.99993719 -38.42218183 138.09366586 -38.5 149.1875 C-44.44 149.1875 -50.38 149.1875 -56.5 149.1875 C-56.51030746 147.6806514 -56.52061493 146.1738028 -56.53123474 144.62129211 C-56.62949396 130.33841967 -56.73222135 116.05558688 -56.83933926 101.77277851 C-56.89428241 94.43194801 -56.94769386 87.09111271 -56.99731445 79.75024414 C-57.0406399 73.3412852 -57.08702752 66.93235644 -57.13687855 60.52344483 C-57.16309752 57.13967889 -57.18747122 53.75592599 -57.20907402 50.37212563 C-57.30861569 34.94604963 -57.64742059 19.59157702 -58.5 4.1875 C-52.23 4.1875 -45.96 4.1875 -39.5 4.1875 C-39.27213542 7.76822917 -39.04427083 11.34895833 -38.81640625 14.9296875 C-38.70793973 18.07050152 -38.70793973 18.07050152 -37.5 20.1875 C-37.02691406 19.46304688 -36.55382813 18.73859375 -36.06640625 17.9921875 C-26.69781772 4.29542064 -16.35192983 -0.38141463 0 0 Z " fill="#000000" transform="translate(2414.5,879.8125)"/>
<path d="M0 0 C11.2271884 7.61267991 15.08641359 18.60603035 17.6875 31.375 C19.13681062 48.18700317 17.01357153 64.60946898 6.625 78.4375 C-0.33441555 85.23121518 -7.58986765 88.03926443 -17.3125 88.3125 C-28.75784132 88.06397259 -36.28931765 84.44597348 -45 77 C-45.33 76.34 -45.66 75.68 -46 75 C-46.33 89.19 -46.66 103.38 -47 118 C-50.96 118 -54.92 118 -59 118 C-59 78.4 -59 38.8 -59 -2 C-55.37 -2 -51.74 -2 -48 -2 C-47.67 0.97 -47.34 3.94 -47 7 C-44.1728191 7 -43.54904718 5.71589701 -41.5625 3.75 C-30.60774285 -5.91135112 -12.61893897 -7.64852956 0 0 Z M-41.41015625 16.69140625 C-48.71618611 27.30040784 -48.38536334 41.91332553 -46.50390625 54.25390625 C-43.85907662 63.80218949 -38.33664434 71.40352618 -29.6875 76.3125 C-21.87343921 78.31144578 -15.36465283 78.61151244 -8 75 C-0.15706293 70.02275148 2.81843205 61.75436067 5 53 C6.77176705 40.41112888 6.79554549 25.75334089 -1 15 C-6.29230236 8.96152446 -12.53994339 6.57815549 -20.375 5.5625 C-29.43770569 6.65627482 -35.65013928 9.51788818 -41.41015625 16.69140625 Z " fill="#808285" transform="translate(2733,562)"/>
<path d="M0 0 C8.98717584 7.22920532 13.40143731 18.3448719 14.875 29.5 C15.82291124 46.39587735 14.94071811 62.68902922 4.2109375 76.66796875 C-1.68735654 82.98372196 -8.5096376 86.04570676 -17.0703125 86.73828125 C-28.63758145 87.00827893 -37.41839153 84.20042023 -46.125 76.5 C-47.115 75.51 -48.105 74.52 -49.125 73.5 C-49.455 87.69 -49.785 101.88 -50.125 116.5 C-53.755 116.5 -57.385 116.5 -61.125 116.5 C-61.455 76.9 -61.785 37.3 -62.125 -3.5 C-58.165 -3.5 -54.205 -3.5 -50.125 -3.5 C-49.795 -0.2 -49.465 3.1 -49.125 6.5 C-47.990625 5.4275 -46.85625 4.355 -45.6875 3.25 C-33.1716802 -7.73190938 -13.9402476 -9.18728699 0 0 Z M-41.59375 11.640625 C-49.59822605 21.36034592 -51.00394506 33.34823575 -50.125 45.5 C-48.77225841 55.3102184 -45.79066182 63.83433818 -38.6875 70.9375 C-31.96880979 75.03426232 -25.43125781 77.26384109 -17.57421875 76.1328125 C-11.18235389 74.56151947 -7.00268191 71.82534983 -3.125 66.5 C3.90258461 54.62580531 4.95747513 38.65813903 1.625 25.4375 C-1.02594429 17.26477314 -4.99196345 11.46094647 -12.125 6.5 C-22.06004851 2.49112078 -33.72852041 4.1463968 -41.59375 11.640625 Z " fill="#808285" transform="translate(1939.125,563.5)"/>
<path d="M0 0 C9.41410149 7.70753332 13.96884416 18.18495878 15.87890625 30.02734375 C16.27516178 34.38615455 16.25390625 38.7755584 16.25390625 43.15234375 C-5.85609375 43.15234375 -27.96609375 43.15234375 -50.74609375 43.15234375 C-47.31515011 59.42157246 -47.31515011 59.42157246 -37.18359375 71.08984375 C-30.24506862 74.89740917 -21.94566499 76.12379468 -14.30859375 74.02734375 C-6.63696822 71.1597944 -2.45223546 67.36320643 1.25390625 60.15234375 C1.91390625 58.50234375 2.57390625 56.85234375 3.25390625 55.15234375 C7.21390625 55.15234375 11.17390625 55.15234375 15.25390625 55.15234375 C12.59058534 65.50970284 8.83276959 74.34518259 -0.15234375 80.6796875 C-10.71204477 86.6751804 -23.09089982 87.96939689 -34.890625 85.4921875 C-44.1074997 82.51442798 -51.38684268 76.93143923 -56.46484375 68.6796875 C-64.09838623 53.62205949 -64.640006 36.88182245 -60.0078125 20.859375 C-56.48091524 10.49706695 -50.34278067 2.32029472 -40.55859375 -2.72265625 C-28.19878277 -8.60086557 -11.36647236 -7.64771184 0 0 Z M-42.18359375 12.21484375 C-46.88183958 18.04182625 -49.74609375 24.6366783 -49.74609375 32.15234375 C-31.92609375 32.15234375 -14.10609375 32.15234375 4.25390625 32.15234375 C1.60048816 21.5386714 -0.54910551 13.05157632 -9.89453125 7.08203125 C-20.72895995 1.64195945 -33.72397511 3.40800195 -42.18359375 12.21484375 Z " fill="#808285" transform="translate(2344.74609375,563.84765625)"/>
<path d="M0 0 C5.47284444 4.23446358 8.03656017 8.96067467 9.765625 15.59375 C10.34148979 20.95300782 10.3719679 26.28200172 10.375 31.6640625 C10.3900083 33.19678471 10.40674094 34.7294909 10.42510986 36.26217651 C10.46849901 40.26351736 10.48871862 44.26464017 10.50384521 48.26617432 C10.52351985 52.362475 10.5654776 56.4585437 10.60546875 60.5546875 C10.68046209 68.56764712 10.7309394 76.58051491 10.765625 84.59375 C6.805625 84.59375 2.845625 84.59375 -1.234375 84.59375 C-1.729375 80.63375 -1.729375 80.63375 -2.234375 76.59375 C-3.6884375 77.955 -3.6884375 77.955 -5.171875 79.34375 C-13.03473243 86.10388962 -21.64295776 87.98830503 -31.78125 87.86328125 C-40.38410593 87.19179136 -46.88044621 84.1557277 -52.640625 77.7109375 C-58.06104532 70.5102811 -58.26270885 62.38402686 -57.234375 53.59375 C-55.07809746 46.23645116 -50.6848681 40.6906848 -44.234375 36.59375 C-36.66336289 33.06634663 -29.30965344 31.45476347 -20.9609375 31.49609375 C-19.80722656 31.49931641 -18.65351562 31.50253906 -17.46484375 31.50585938 C-16.27503906 31.51423828 -15.08523438 31.52261719 -13.859375 31.53125 C-12.03986328 31.53801758 -12.03986328 31.53801758 -10.18359375 31.54492188 C-7.20046993 31.55666646 -4.21744821 31.5730916 -1.234375 31.59375 C-1.46435374 29.21528567 -1.71758991 26.84313734 -1.984375 24.46875 C-2.04625 23.80359375 -2.108125 23.1384375 -2.171875 22.453125 C-2.74910759 17.54664795 -4.18347444 14.44903112 -7.234375 10.59375 C-12.67581763 6.54754907 -18.58848679 5.96025979 -25.234375 6.59375 C-30.10659588 7.52423429 -34.04751199 8.49590172 -37.734375 11.90625 C-39.31839086 14.74427841 -40.36165914 17.46651816 -41.234375 20.59375 C-45.194375 20.59375 -49.154375 20.59375 -53.234375 20.59375 C-52.70494929 13.04943362 -50.68721246 7.68351534 -45.171875 2.40625 C-33.41552134 -6.8061868 -12.75190299 -8.02567321 0 0 Z M-42.546875 51.15625 C-45.49605487 55.41617647 -45.75225085 59.54925565 -45.234375 64.59375 C-43.49192328 69.53069654 -40.71012435 72.89409166 -36.234375 75.59375 C-28.77170026 78.33006407 -21.34608098 78.19228787 -13.984375 75.03125 C-7.98846706 71.65173825 -4.59399253 66.29829548 -2.359375 59.90625 C-0.74787326 53.86547449 -0.97187889 47.79643577 -1.234375 41.59375 C-23.79956294 40.53854267 -23.79956294 40.53854267 -42.546875 51.15625 Z " fill="#808285" transform="translate(2028.234375,562.40625)"/>
<path d="M0 0 C3.96 0 7.92 0 12 0 C12.33 15.18 12.66 30.36 13 46 C15.64 43.69 18.28 41.38 21 39 C30.293924 34.03475293 40.71126858 33.2317093 50.9375 36.0625 C57.94052609 38.89013695 63.02139229 43.93333408 66.2109375 50.71484375 C69.10242241 59.08869856 69.26470647 66.75561388 69.1953125 75.5625 C69.19157591 76.9635396 69.18873199 78.36458184 69.18673706 79.765625 C69.1791514 83.42839956 69.15954737 87.09101202 69.1373291 90.75372314 C69.11676062 94.50115772 69.10771197 98.24861883 69.09765625 101.99609375 C69.07629592 109.33080256 69.04222233 116.66537844 69 124 C65.37 124 61.74 124 58 124 C57.98541748 122.22955322 57.97083496 120.45910645 57.95581055 118.63500977 C57.90395952 112.75558821 57.83862081 106.87639766 57.76428509 100.99722385 C57.7197438 97.4360796 57.68045322 93.87504546 57.65356445 90.3137207 C57.62234345 86.21016331 57.56756222 82.10720301 57.51171875 78.00390625 C57.50532883 76.73793106 57.4989389 75.47195587 57.49235535 74.1676178 C57.34505022 65.23319263 56.74106583 56.54846395 50 50 C44.14222201 46.51025992 38.77976112 45.44428188 32 46 C25.37515538 47.81431582 20.75752864 50.03216039 17 56 C12.92412207 63.82341149 12.399422 70.94991407 12.390625 79.6640625 C12.37408875 80.93728363 12.35755249 82.21050476 12.34051514 83.52230835 C12.3004262 86.87282266 12.27692797 90.22258377 12.26177979 93.57324219 C12.24207117 97.00601332 12.20011783 100.43850922 12.16015625 103.87109375 C12.08649075 110.58069817 12.03678745 117.29009616 12 124 C8.04 124 4.08 124 0 124 C0 83.08 0 42.16 0 0 Z " fill="#808285" transform="translate(3074,523)"/>
<path d="M0 0 C3.63 0 7.26 0 11 0 C11.33 15.51 11.66 31.02 12 47 C14.31 44.69 16.62 42.38 19 40 C28.37222113 34.6844119 38.40879639 33.11198158 49.03125 35.75390625 C57.7725345 39.11087545 62.01318766 43.64667892 66 52 C69.46491346 60.66228365 69.13546936 69.39956058 69.09765625 78.58984375 C69.0962413 79.88950577 69.09482635 81.18916779 69.09336853 82.5282135 C69.08957334 85.96243253 69.07976908 89.39660842 69.06866455 92.83081055 C69.05838555 96.34358131 69.05385708 99.85635912 69.04882812 103.36914062 C69.03814376 110.24611312 69.02057167 117.12305004 69 124 C65.04 124 61.08 124 57 124 C56.9906543 122.1334375 56.98130859 120.266875 56.97167969 118.34375 C56.93605279 112.15294648 56.88219206 105.96250779 56.81609726 99.7719574 C56.77671162 96.02129453 56.74447997 92.2708633 56.72900391 88.52001953 C56.71377781 84.89520046 56.67922906 81.27101857 56.63169098 77.64648438 C56.61693801 76.26877403 56.6089625 74.89097267 56.60811615 73.51318359 C56.59770833 65.0600999 56.52653172 58.09510449 50.65936279 51.4909668 C46.21377784 47.36522799 41.51528287 46.23289656 35.625 45.6875 C31.09941861 46.07763633 27.1986563 47.30812001 23 49 C22.29230469 49.28101563 21.58460938 49.56203125 20.85546875 49.8515625 C18.52832161 51.2919441 18.0255422 52.4885611 17 55 C16.65839844 55.72058594 16.31679687 56.44117188 15.96484375 57.18359375 C15.62582031 57.92738281 15.28679688 58.67117188 14.9375 59.4375 C14.59589844 60.17871094 14.25429687 60.91992188 13.90234375 61.68359375 C12.23937598 65.9525976 11.86797006 70.06186044 11.79467773 74.61645508 C11.77473251 75.71721878 11.75478729 76.81798248 11.73423767 77.95210266 C11.70916893 79.71797981 11.70916893 79.71797981 11.68359375 81.51953125 C11.66281265 82.73323898 11.64203156 83.94694672 11.62062073 85.19743347 C11.55531084 89.06906551 11.49632637 92.94076455 11.4375 96.8125 C11.39429715 99.43946002 11.35068229 102.06641329 11.30664062 104.69335938 C11.19964838 111.12883782 11.0983285 117.56438358 11 124 C7.37 124 3.74 124 0 124 C0 83.08 0 42.16 0 0 Z " fill="#808285" transform="translate(2536,523)"/>
<path d="M0 0 C6.27 0 12.54 0 19 0 C19 47.85 19 95.7 19 145 C12.73 145 6.46 145 0 145 C0 97.15 0 49.3 0 0 Z " fill="#000000" transform="translate(2017,884)"/>
<path d="M0 0 C5.19878045 4.25354764 7.50161396 9.22134669 8.375 15.8125 C8.4575 16.9675 8.54 18.1225 8.625 19.3125 C4.335 19.3125 0.045 19.3125 -4.375 19.3125 C-4.58125 18.260625 -4.7875 17.20875 -5 16.125 C-6.22747204 11.91408896 -8.59010604 9.45615676 -12.375 7.3125 C-20.07363444 4.25849626 -27.71080964 4.59285489 -35.390625 7.38671875 C-38.75902655 8.95819743 -40.7324665 11.027433 -42.375 14.3125 C-42.87570321 17.68607334 -42.87570321 17.68607334 -42.375 21.3125 C-38.92623505 25.52907904 -35.8443653 27.22402664 -30.6875 28.8125 C-29.72541626 29.11595337 -29.72541626 29.11595337 -28.74389648 29.42553711 C-25.07501863 30.56363979 -21.37928119 31.59312282 -17.671875 32.59765625 C-16.88385498 32.81164062 -16.09583496 33.025625 -15.28393555 33.24609375 C-13.76462848 33.65330788 -12.24274525 34.05107688 -10.71801758 34.4375 C-3.93277696 36.22369746 2.95597488 38.33736109 7.0625 44.375 C7.53558594 45.04660156 8.00867187 45.71820312 8.49609375 46.41015625 C11.85971442 52.07826444 11.13210622 58.95958602 10.625 65.3125 C8.42101758 73.0503948 2.66547806 78.18851014 -4.1015625 82.17578125 C-14.48610155 87.36805078 -27.60968206 88.11907853 -38.8125 85.1875 C-47.31964492 82.10831455 -53.44142001 77.5484331 -57.375 69.3125 C-58.5327506 65.83924819 -58.44366652 62.95182552 -58.375 59.3125 C-54.415 59.3125 -50.455 59.3125 -46.375 59.3125 C-45.694375 61.6328125 -45.694375 61.6328125 -45 64 C-43.30626558 68.19570702 -41.81389102 70.22480896 -37.8125 72.375 C-28.67798211 76.1631383 -19.495914 76.20796892 -10.3671875 72.49609375 C-7.27291275 70.94895638 -5.42807762 69.38783598 -3.4375 66.5625 C-1.95927724 62.04087744 -1.46788456 57.83223231 -3.12524414 53.22851562 C-8.22471648 45.41045372 -22.48527846 44.00422631 -30.83007812 41.99609375 C-40.49040212 39.5597657 -48.5383399 36.7026989 -54.375 28.3125 C-56.37091928 22.32474217 -56.61383728 14.76202104 -54.46875 8.7890625 C-50.06257724 1.41719654 -43.53310902 -3.09259407 -35.203125 -5.25 C-23.2572193 -7.09798541 -10.26840232 -6.87683148 0 0 Z " fill="#808285" transform="translate(2499.375,563.6875)"/>
<path d="M0 0 C5.94 0 11.88 0 18 0 C18 47.85 18 95.7 18 145 C12.06 145 6.12 145 0 145 C0 97.15 0 49.3 0 0 Z " fill="#000000" transform="translate(2895,1170)"/>
<path d="M0 0 C5.94 0 11.88 0 18 0 C18 47.85 18 95.7 18 145 C12.06 145 6.12 145 0 145 C0 97.15 0 49.3 0 0 Z " fill="#000000" transform="translate(2580,884)"/>
<path d="M0 0 C6.81807536 4.25972176 10.70975268 9.70989061 13.11328125 17.3203125 C14.96404539 26.16193004 15.38888944 34.83344874 15.30859375 43.83984375 C15.30576385 45.06442795 15.30293396 46.28901215 15.30001831 47.55070496 C15.28894093 51.41151249 15.26386022 55.27207665 15.23828125 59.1328125 C15.22823535 61.77148099 15.21911234 64.41015317 15.2109375 67.04882812 C15.18904249 73.47274814 15.15460019 79.89648925 15.11328125 86.3203125 C11.15328125 86.3203125 7.19328125 86.3203125 3.11328125 86.3203125 C3.09869873 84.48404297 3.08411621 82.64777344 3.0690918 80.75585938 C3.0172873 74.66488142 2.95196079 68.57416368 2.87756634 62.48342133 C2.83298295 58.79333208 2.79370113 55.10335017 2.7668457 51.41308594 C2.74069155 47.84670398 2.70020579 44.2807378 2.65009499 40.71461487 C2.62547686 38.70302777 2.61541289 36.69127941 2.6056366 34.67956543 C2.48573762 27.1643918 2.3386374 20.45579389 -2.46484375 14.296875 C-8.44420632 9.46309124 -14.11508938 7.65034445 -21.88671875 8.3203125 C-29.83814705 10.07511047 -34.24727959 13.64407574 -38.88671875 20.3203125 C-42.19455606 27.82640237 -42.35443931 35.46792 -42.3984375 43.546875 C-42.4163887 44.77570404 -42.4343399 46.00453308 -42.45283508 47.27059937 C-42.50664291 51.16213641 -42.54073969 55.05355287 -42.57421875 58.9453125 C-42.60741779 61.59767292 -42.64190981 64.25001749 -42.67773438 66.90234375 C-42.76235274 73.37491259 -42.82930482 79.8474475 -42.88671875 86.3203125 C-46.51671875 86.3203125 -50.14671875 86.3203125 -53.88671875 86.3203125 C-54.21671875 57.6103125 -54.54671875 28.9003125 -54.88671875 -0.6796875 C-51.25671875 -0.6796875 -47.62671875 -0.6796875 -43.88671875 -0.6796875 C-43.22671875 2.6203125 -42.56671875 5.9203125 -41.88671875 9.3203125 C-41.39171875 8.5984375 -40.89671875 7.8765625 -40.38671875 7.1328125 C-30.64136793 -3.83070717 -13.09195451 -6.29293948 0 0 Z " fill="#808285" transform="translate(1783.88671875,560.6796875)"/>
<path d="M0 0 C7.43496282 4.64513389 11.08749166 10.80705359 13.65159607 19.05108643 C14.24838494 21.98435986 14.23260941 24.74698387 14.22680664 27.74121094 C14.22669334 29.69278107 14.22669334 29.69278107 14.22657776 31.68377686 C14.22147149 33.09908079 14.2162555 34.51438434 14.2109375 35.9296875 C14.2090716 37.38128613 14.20764851 38.83288538 14.20664978 40.28448486 C14.20283813 44.09850819 14.1930194 47.91249323 14.1819458 51.72650146 C14.1717026 55.62104779 14.16714593 59.51560033 14.16210938 63.41015625 C14.1513959 71.04689243 14.13433574 78.68359709 14.11328125 86.3203125 C10.48328125 86.3203125 6.85328125 86.3203125 3.11328125 86.3203125 C3.10781281 85.18517967 3.10781281 85.18517967 3.10223389 84.02711487 C3.06422071 76.86287332 3.00721887 69.69914416 2.92937851 62.5352335 C2.89002507 58.85298048 2.85777784 55.17096224 2.84228516 51.48852539 C2.82703757 47.9285359 2.79245171 44.36919241 2.74497223 40.80949211 C2.72311755 38.80404902 2.7208145 36.79842323 2.71893311 34.79286194 C2.5938034 26.92026678 1.98968523 20.00131728 -3.19195557 13.74415588 C-7.65008348 9.54343773 -12.64254877 8.44508827 -18.52734375 8.21875 C-25.5554244 8.47395963 -30.86228267 10.28578719 -35.88671875 15.3203125 C-40.02328799 21.60433515 -41.97622144 27.52820073 -42.09204102 35.00683594 C-42.11198624 36.14771667 -42.13193146 37.28859741 -42.15248108 38.46405029 C-42.16919357 39.69021057 -42.18590607 40.91637085 -42.203125 42.1796875 C-42.2239061 43.43920227 -42.24468719 44.69871704 -42.26609802 45.99639893 C-42.32038177 49.33690121 -42.37063944 52.67741472 -42.41894531 56.01800537 C-42.46927579 59.43002643 -42.52490145 62.84196073 -42.58007812 66.25390625 C-42.68716992 72.94264126 -42.78846451 79.63144207 -42.88671875 86.3203125 C-46.51671875 86.3203125 -50.14671875 86.3203125 -53.88671875 86.3203125 C-54.21671875 57.6103125 -54.54671875 28.9003125 -54.88671875 -0.6796875 C-51.25671875 -0.6796875 -47.62671875 -0.6796875 -43.88671875 -0.6796875 C-43.22671875 2.6203125 -42.56671875 5.9203125 -41.88671875 9.3203125 C-41.39171875 8.5984375 -40.89671875 7.8765625 -40.38671875 7.1328125 C-30.64136793 -3.83070717 -13.09195451 -6.29293948 0 0 Z " fill="#808285" transform="translate(2242.88671875,560.6796875)"/>
<path d="M0 0 C0 7.26 0 14.52 0 22 C6.27 22 12.54 22 19 22 C19 25.63 19 29.26 19 33 C12.73 33 6.46 33 0 33 C0.01774446 40.99787901 0.05652514 48.99481468 0.13209057 56.99232769 C0.16634532 60.70614851 0.19146804 64.41955866 0.19555664 68.13354492 C0.1998431 71.71954484 0.2283321 75.30461864 0.27343178 78.89032936 C0.28639611 80.25656548 0.29071815 81.6229125 0.28615379 82.9892025 C-0.13611441 91.2842666 -0.13611441 91.2842666 3.41748047 98.33398438 C5.81852223 99.88292642 7.12818423 100.65738441 9.9375 100.8125 C10.61683594 100.85890625 11.29617187 100.9053125 11.99609375 100.953125 C14.66737909 101.01561121 17.32843456 101.06678914 20 101 C20 104.3 20 107.6 20 111 C11.75557473 113.06110632 2.4506052 113.3703927 -5.2265625 109.33203125 C-9.06294853 106.45051663 -10.61556283 102.85338171 -11.58665466 98.17172241 C-12.0066781 94.94875697 -12.12015672 91.87679229 -12.11352539 88.62744141 C-12.11344986 87.38660797 -12.11337433 86.14577454 -12.11329651 84.86734009 C-12.10819113 83.52874714 -12.10297515 82.19015461 -12.09765625 80.8515625 C-12.09578906 79.47008312 -12.09436658 78.08860308 -12.09336853 76.7071228 C-12.08956702 73.08711897 -12.07975716 69.46715583 -12.06866455 65.84716797 C-12.05839935 62.14681549 -12.05386 58.44645639 -12.04882812 54.74609375 C-12.03813257 47.49737521 -12.02055516 40.24869851 -12 33 C-17.61 33 -23.22 33 -29 33 C-29 29.37 -29 25.74 -29 22 C-23.39 22 -17.78 22 -12 22 C-12 16.06 -12 10.12 -12 4 C-3.375 0 -3.375 0 0 0 Z " fill="#808285" transform="translate(2147,538)"/>
<path d="M0 0 C0 7.26 0 14.52 0 22 C6.6 22 13.2 22 20 22 C20 25.63 20 29.26 20 33 C13.4 33 6.8 33 0 33 C0.06307367 40.57197648 0.13861537 48.14363589 0.23571491 55.71524906 C0.28031906 59.23161053 0.31959638 62.7478588 0.34643555 66.2644043 C0.37757643 70.313281 0.43236099 74.36154538 0.48828125 78.41015625 C0.49467117 79.66458023 0.5010611 80.91900421 0.50764465 82.21144104 C0.61308331 88.50071899 0.75286163 93.52139963 4 99 C9.11474631 101.94097913 15.26190854 101.18378229 21 101 C21 104.3 21 107.6 21 111 C12.26406053 113.00975231 3.03279797 113.2354753 -5 109 C-9.14207168 104.96693021 -10.80790817 100.5471606 -11.24050903 94.81082153 C-11.2338472 93.09873001 -11.2338472 93.09873001 -11.22705078 91.35205078 C-11.22689972 90.05115509 -11.22674866 88.7502594 -11.22659302 87.40994263 C-11.21638202 86.00506433 -11.20595007 84.60018763 -11.1953125 83.1953125 C-11.19157846 81.74657385 -11.18873333 80.29783266 -11.18673706 78.84909058 C-11.17913136 75.0514824 -11.15950952 71.25402922 -11.1373291 67.45648193 C-11.11680438 63.57517595 -11.10772122 59.69384471 -11.09765625 55.8125 C-11.07626043 48.20825477 -11.04110362 40.60416892 -11 33 C-16.61 33 -22.22 33 -28 33 C-28 29.37 -28 25.74 -28 22 C-22.39 22 -16.78 22 -11 22 C-11 16.06 -11 10.12 -11 4 C-3 0 -3 0 0 0 Z " fill="#808285" transform="translate(3032,538)"/>
<path d="M0 0 C0 3.63 0 7.26 0 11 C-2.1965625 10.9071875 -2.1965625 10.9071875 -4.4375 10.8125 C-10.97958943 10.82176642 -16.21335107 12.32801064 -21.8125 15.6875 C-27.2469224 21.43246083 -29.08949646 28.12633459 -29.20532227 35.87011719 C-29.22526749 37.05103943 -29.24521271 38.23196167 -29.26576233 39.44866943 C-29.28247482 40.71857727 -29.29918732 41.98848511 -29.31640625 43.296875 C-29.33718735 44.60078186 -29.35796844 45.90468872 -29.37937927 47.24810791 C-29.43445236 50.70695808 -29.4839264 54.1658664 -29.53222656 57.62481689 C-29.58254972 61.15748238 -29.63817922 64.69006389 -29.69335938 68.22265625 C-29.80076024 75.14836615 -29.90175433 82.07415424 -30 89 C-33.96 89 -37.92 89 -42 89 C-42 60.29 -42 31.58 -42 2 C-38.37 2 -34.74 2 -31 2 C-30.67 4.31 -30.34 6.62 -30 9 C-29.34 9 -28.68 9 -28 9 C-27.46375 8.2575 -26.9275 7.515 -26.375 6.75 C-19.13460294 -1.63361765 -10.1170564 -0.44200732 0 0 Z " fill="#808285" transform="translate(2109,558)"/>
<path d="M0 0 C0 3.63 0 7.26 0 11 C-2.2275 10.9071875 -2.2275 10.9071875 -4.5 10.8125 C-11.4756048 10.8322051 -17.38466308 12.58685645 -22.68359375 17.3515625 C-27.86113734 23.83501471 -29.07321338 32.59841427 -29.20532227 40.63818359 C-29.22526749 41.71885101 -29.24521271 42.79951843 -29.26576233 43.91293335 C-29.28247482 45.06314972 -29.29918732 46.21336609 -29.31640625 47.3984375 C-29.33718735 48.58853424 -29.35796844 49.77863098 -29.37937927 51.00479126 C-29.44460095 54.79480385 -29.50363234 58.58488391 -29.5625 62.375 C-29.60571126 64.94922564 -29.64932638 67.52344453 -29.69335938 70.09765625 C-29.80025428 76.3983689 -29.90159864 82.69914921 -30 89 C-33.63 89 -37.26 89 -41 89 C-41.33 60.29 -41.66 31.58 -42 2 C-38.04 2 -34.08 2 -30 2 C-29.67 4.97 -29.34 7.94 -29 11 C-28.57589844 10.45730469 -28.15179687 9.91460938 -27.71484375 9.35546875 C-19.52717525 -0.63168733 -12.13001701 -0.42150638 0 0 Z " fill="#808285" transform="translate(2427,558)"/>
<path d="M0 0 C3.96 0 7.92 0 12 0 C12 28.71 12 57.42 12 87 C8.04 87 4.08 87 0 87 C0 58.29 0 29.58 0 0 Z " fill="#808285" transform="translate(2972,560)"/>
<path d="M0 0 C3.96 0 7.92 0 12 0 C12 28.71 12 57.42 12 87 C8.04 87 4.08 87 0 87 C0 58.29 0 29.58 0 0 Z " fill="#808285" transform="translate(1688,560)"/>
<path d="M0 0 C3.63 0 7.26 0 11 0 C11 28.71 11 57.42 11 87 C7.37 87 3.74 87 0 87 C0 58.29 0 29.58 0 0 Z " fill="#808285" transform="translate(2635,560)"/>
<path d="M0 0 C6.93 0 13.86 0 21 0 C21 7.59 21 15.18 21 23 C14.07 23 7.14 23 0 23 C0 15.41 0 7.82 0 0 Z " fill="#000000" transform="translate(2894,1114)"/>
<path d="M0 0 C6.93 0 13.86 0 21 0 C21 7.59 21 15.18 21 23 C14.07 23 7.14 23 0 23 C0 15.41 0 7.82 0 0 Z " fill="#000000" transform="translate(2578,828)"/>
<path d="M0 0 C6.93 0 13.86 0 21 0 C21 7.59 21 15.18 21 23 C14.07 23 7.14 23 0 23 C0 15.41 0 7.82 0 0 Z " fill="#000000" transform="translate(2016,828)"/>
<path d="M0 0 C4.29 0 8.58 0 13 0 C13 4.62 13 9.24 13 14 C8.71 14 4.42 14 0 14 C0 9.38 0 4.76 0 0 Z " fill="#808285" transform="translate(2972,523)"/>
<path d="M0 0 C4.29 0 8.58 0 13 0 C13 4.62 13 9.24 13 14 C8.71 14 4.42 14 0 14 C0 9.38 0 4.76 0 0 Z " fill="#808285" transform="translate(2634,523)"/>
<path d="M0 0 C4.29 0 8.58 0 13 0 C13 4.62 13 9.24 13 14 C8.71 14 4.42 14 0 14 C0 9.38 0 4.76 0 0 Z " fill="#808285" transform="translate(1687,523)"/>
</svg>
